<svg width="1728" height="970" viewBox="0 0 1728 970" fill="none" xmlns="http://www.w3.org/2000/svg">
<path d="M831.457 0.356542C831.85 0.744893 832.156 0.780198 832.548 0.533065C832.941 0.250628 833.203 0.250628 833.421 0.533065C833.552 0.709589 834.687 0.886112 835.866 0.886112C837.48 0.886112 837.961 0.992026 837.786 1.30977C837.611 1.5569 837.742 1.5216 838.092 1.20385C838.703 0.603675 839.925 0.709589 839.488 1.30977C839.314 1.5569 839.401 1.59221 839.663 1.45099C839.968 1.30977 841.801 1.98056 843.766 2.93378C845.773 3.88701 850.662 6.21712 854.677 8.05297L862.01 11.4422V6.0406V0.603675H864.628H867.247V6.00529V11.4069L877.155 6.782C882.654 4.24006 887.892 1.80403 888.808 1.38038C890.423 0.638979 890.598 0.603675 891.165 1.16855C891.471 1.48629 891.645 1.5569 891.471 1.30977C891.296 1.02733 891.689 0.886112 892.955 0.886112C894.439 0.886112 894.657 0.992026 894.439 1.48629C894.22 1.90995 894.439 1.83934 895.093 1.30977C895.923 0.638979 896.228 0.56837 897.057 0.921417C897.974 1.34507 897.974 1.30977 897.407 0.674284C896.796 0.0387995 896.796 0.0387995 897.625 0.638979C898.323 1.16855 898.367 1.30977 897.799 1.59221C897.45 1.76873 896.883 1.87464 896.621 1.76873C896.315 1.69812 896.097 1.80403 896.185 2.05117C896.228 2.2983 896.01 2.43952 895.704 2.36891C895.443 2.3336 895.181 2.43952 895.181 2.58074C895.181 2.72196 894.57 3.14561 893.828 3.49866C892.824 3.95762 892.518 4.02823 892.737 3.67518C892.911 3.39275 892.693 3.49866 892.256 3.88701C891.82 4.27536 886.626 6.88791 880.647 9.67698C874.711 12.4307 869.866 14.8315 869.866 14.9374C869.91 15.2551 982.473 67.7179 983.084 67.7179C983.346 67.7179 996.134 61.822 1011.5 54.6552C1074.04 25.4582 1087.05 19.4564 1088.1 19.3858C1088.71 19.3505 1089.14 19.1386 1089.06 18.9268C1089.01 18.715 1089.32 18.3972 1089.71 18.2913C1090.15 18.1501 1090.76 17.8324 1091.06 17.5852C1091.37 17.3734 1091.94 17.2675 1092.33 17.3734C1092.77 17.5146 1092.94 17.444 1092.77 17.2322C1092.37 16.7026 1094.03 16.4202 1094.69 16.9144C1095.08 17.1969 1095.12 17.1969 1094.86 16.8085C1094.6 16.4202 1094.73 16.3496 1095.56 16.5261C1096.13 16.632 1098.18 16.9144 1100.14 17.1263C1102.11 17.3381 1104.33 17.6558 1105.16 17.8324C1107.04 18.2913 1107.87 18.2913 1107.52 17.8677C1107.39 17.6911 1107.43 17.444 1107.65 17.3381C1108.39 16.9851 1108.09 18.5032 1107.26 19.1033C1106.73 19.4917 1106.43 19.5623 1106.43 19.2799C1106.43 19.0327 1106.25 18.9268 1106.04 19.068C1105.82 19.1739 1105.51 19.1033 1105.34 18.8915C1105.21 18.715 1104.77 18.5385 1104.42 18.5385C1103.9 18.5385 1103.81 25.5994 1103.81 71.4249V124.311L1160.29 150.684C1191.36 165.194 1216.9 177.057 1217.03 177.057C1217.16 177.057 1217.29 153.261 1217.29 124.17V71.2837L1173.73 50.9482C1149.81 39.7566 1126.72 28.9533 1122.49 26.9763C1118.26 24.9639 1114.9 23.1987 1115.03 23.0222C1115.16 22.8103 1115.07 22.775 1114.76 22.9162C1114.5 23.0575 1113.72 22.8456 1113.02 22.4573C1112.32 22.0336 1111.53 21.7159 1111.27 21.7159C1111.01 21.7159 1110.4 21.3981 1109.92 21.0098C1109.44 20.6214 1109.05 20.3743 1109.05 20.4802C1109.05 20.5861 1108.65 20.5155 1108.17 20.3037C1107.69 20.0919 1107.3 19.7741 1107.3 19.5623C1107.3 19.3505 1107.52 19.3152 1107.74 19.4211C1108 19.5623 1108.13 19.4564 1108.09 19.1739C1108 18.8209 1108.7 18.715 1110.88 18.715C1112.8 18.715 1113.63 18.8209 1113.41 19.068C1113.15 19.3152 1113.46 19.4211 1114.2 19.3858C1115.46 19.3505 1117.86 20.2684 1117.51 20.692C1117.43 20.8333 1117.56 21.0804 1117.82 21.2216C1118.17 21.3628 1118.21 21.3275 1118.04 21.0804C1117.56 20.4096 1118.13 20.5861 1121.09 21.9277C1122.71 22.6691 1123.76 23.3399 1123.58 23.5517C1123.45 23.7636 1123.54 23.8342 1123.8 23.6929C1124.06 23.587 1124.37 23.6223 1124.54 23.8342C1124.72 24.046 1125.02 24.1166 1125.24 24.0107C1125.46 23.8695 1125.63 23.9754 1125.63 24.1519C1125.63 24.3637 1125.85 24.5403 1126.16 24.5403C1126.64 24.5403 1133.1 27.4705 1146.8 33.896C1150.16 35.4847 1167.97 43.7813 1186.34 52.3604L1219.82 67.965L1236.54 60.1627C1245.75 55.8555 1253.78 52.1485 1254.39 51.9367C1255 51.7249 1256.35 51.0894 1257.4 50.5598C1258.45 49.9949 1259.76 49.5007 1260.37 49.4654C1260.98 49.3948 1261.59 49.1829 1261.81 48.9358C1262.03 48.5828 1262.2 48.6181 1262.38 49.0417C1262.55 49.3595 1262.81 49.6066 1262.99 49.5713C1263.86 49.4654 1264.08 49.6419 1263.6 50.1009C1263.16 50.4892 1263.21 50.5951 1263.73 50.5245C1264.12 50.4892 1264.56 50.3127 1264.73 50.1362C1264.95 49.9949 1264.78 49.9596 1264.43 50.1362C1264.08 50.3127 1263.9 50.2774 1264.12 50.1362C1264.6 49.6772 1265.74 49.6066 1265.74 50.0302C1265.74 50.2068 1266 50.3127 1266.26 50.2068C1266.57 50.1362 1266.83 49.889 1266.83 49.6772C1266.83 49.4301 1266.96 49.2535 1267.13 49.2535C1267.35 49.2535 1267.61 49.2535 1267.79 49.2535C1268.22 49.2535 1266.48 50.701 1265.56 51.0894C1264.95 51.3718 1264.82 51.3365 1265.08 50.9482C1265.21 50.701 1265.04 50.807 1264.69 51.16C1264.3 51.5484 1263.99 51.7249 1263.99 51.513C1263.99 51.3365 1263.82 51.4071 1263.6 51.6896C1263.38 51.9367 1254.04 56.4557 1242.78 61.7514L1222.31 71.319L1222.18 124.17C1222.13 153.261 1222.27 177.057 1222.44 177.057C1222.75 177.057 1320.6 131.549 1332.56 125.865L1335.44 124.488L1335.7 110.648C1335.88 103.023 1336.01 90.9484 1336.01 83.7815C1336.01 76.65 1336.14 70.7894 1336.31 70.7894C1336.49 70.7894 1337.58 71.1425 1338.71 71.5661L1340.81 72.3781L1340.9 98.4683L1341.03 124.523L1349.1 128.301C1387.86 146.483 1453.55 177.057 1453.85 177.057C1454.11 177.057 1454.29 165.688 1454.33 146.236C1454.38 129.325 1454.46 115.732 1454.59 116.05C1454.68 116.403 1455.16 116.686 1455.64 116.686C1456.08 116.686 1456.47 116.827 1456.47 117.039C1456.47 117.215 1457.04 117.392 1457.78 117.392H1459.09V147.259C1459.09 175.15 1459.13 177.127 1459.83 176.915C1460.22 176.774 1472.05 171.302 1486.11 164.771C1500.16 158.239 1511.73 152.943 1511.81 152.979C1511.94 153.049 1512.16 152.979 1512.29 152.802C1512.86 152.096 1515.87 150.86 1516.53 151.072C1516.88 151.178 1517.05 151.143 1516.92 150.931C1516.66 150.613 1518.4 149.519 1519.41 149.378C1519.71 149.342 1520.28 149.166 1520.63 149.025C1520.98 148.848 1521.15 148.848 1520.94 148.989C1520.76 149.166 1521.5 149.731 1522.59 150.225C1524.6 151.178 1524.65 151.319 1522.86 152.167C1522.46 152.343 1522.33 152.308 1522.55 152.061C1522.68 151.849 1522.59 151.567 1522.33 151.425C1522.03 151.284 1521.94 151.319 1522.11 151.567C1522.42 151.99 1520.67 153.473 1520.19 153.226C1520.02 153.12 1519.63 153.261 1519.36 153.508C1519.1 153.791 1506.05 160.004 1490.3 167.383C1468.65 177.516 1461.84 180.834 1462.28 181.152C1462.54 181.364 1470.66 185.212 1480.26 189.66C1489.86 194.144 1514.69 205.724 1535.47 215.433C1556.25 225.142 1573.62 233.262 1574.14 233.473C1574.93 233.826 1577.46 232.732 1594.39 224.859C1605.04 219.916 1613.99 215.927 1614.29 216.033C1614.6 216.139 1614.99 216.033 1615.17 215.821C1615.39 215.574 1615.26 215.539 1614.91 215.715C1614.51 215.892 1614.43 215.856 1614.64 215.609C1614.82 215.362 1615.26 215.186 1615.6 215.186C1615.95 215.186 1616.22 215.009 1616.22 214.797C1616.22 214.621 1616.43 214.55 1616.7 214.656C1617 214.833 1616.87 215.15 1616.35 215.645C1615.91 216.068 1615.74 216.315 1615.95 216.174C1616.17 216.033 1616.65 216.104 1617.04 216.351C1617.66 216.704 1617.66 216.704 1617.18 216.174C1616.83 215.821 1616.78 215.539 1617.04 215.397C1617.31 215.256 1617.35 214.903 1617.22 214.585C1617.04 214.197 1617.09 214.091 1617.44 214.268C1617.74 214.409 1617.96 214.374 1617.96 214.162C1617.96 213.95 1618.4 213.597 1618.92 213.385C1619.49 213.173 1619.79 213.103 1619.62 213.244C1619.45 213.385 1619.88 214.091 1620.58 214.833C1621.54 215.821 1621.71 216.245 1621.32 216.562C1621.06 216.774 1611.07 221.54 1599.11 227.119L1577.41 237.251L1577.37 290.102C1577.37 344.577 1577.37 343.836 1578.9 342.671C1579.25 342.424 1635.11 316.334 1682.51 294.303C1689.89 290.879 1692.33 289.996 1691.5 291.091C1691.37 291.267 1691.46 291.479 1691.64 291.585C1691.85 291.691 1691.99 291.338 1691.94 290.808C1691.9 290.279 1691.64 289.89 1691.37 289.926C1690.98 289.996 1690.85 288.761 1690.85 285.513C1690.85 281.311 1690.89 281.099 1691.5 282.053C1691.85 282.582 1692.16 283.288 1692.16 283.536C1692.16 283.818 1692.33 284.03 1692.55 284.03C1692.77 284.03 1693.56 284.736 1694.3 285.654C1695.3 286.819 1695.65 287.631 1695.65 288.796C1695.65 290.243 1695.78 290.385 1697.4 291.126C1698.36 291.585 1699.45 292.326 1699.84 292.785C1700.23 293.28 1700.76 293.527 1701.15 293.421C1701.67 293.244 1701.67 293.35 1701.28 294.021C1700.76 294.762 1700.8 294.762 1701.54 294.268C1702.29 293.774 1702.33 293.774 1701.81 294.515C1701.37 295.186 1701.41 295.327 1701.98 295.327C1702.37 295.327 1702.55 295.468 1702.42 295.68C1702.29 295.857 1702.37 296.033 1702.63 296.033C1702.9 296.033 1703.29 296.386 1703.51 296.81C1703.73 297.269 1704.29 298.01 1704.69 298.505L1705.47 299.387L1703.33 298.363C1702.2 297.834 1700.85 297.057 1700.41 296.704C1699.97 296.351 1699.27 296.033 1698.92 296.033C1698.58 296.033 1697.31 295.539 1696.09 294.974C1694.87 294.374 1693.69 293.915 1693.43 293.915C1693.21 293.915 1676.75 301.506 1656.89 310.826C1637.03 320.111 1611.72 331.938 1600.59 337.128C1589.5 342.318 1580.43 346.696 1580.43 346.802C1580.43 346.943 1605.83 358.911 1636.9 373.457L1693.38 399.829L1718.83 388.002C1732.79 381.471 1744.49 376.21 1744.8 376.316C1745.15 376.422 1745.5 376.316 1745.67 376.104C1745.89 375.857 1745.76 375.822 1745.41 375.999C1745.02 376.175 1744.93 376.14 1745.15 375.857C1745.41 375.54 1745.63 375.54 1746.11 375.857C1746.5 376.104 1746.72 376.14 1746.67 375.963C1746.41 374.798 1747.85 374.057 1750.12 374.233C1750.86 374.269 1751.39 374.198 1751.3 374.021C1751.17 373.88 1750.69 373.81 1750.21 373.88C1748.94 374.092 1749.12 373.845 1750.69 373.209C1751.74 372.786 1751.91 372.786 1751.56 373.139C1751.21 373.457 1751.21 373.704 1751.47 373.845C1751.74 373.986 1751.82 374.304 1751.65 374.586C1751.52 374.904 1751.65 375.328 1751.91 375.575C1752.61 376.281 1751.52 377.269 1748.64 378.47C1747.24 379.035 1745.89 379.67 1745.63 379.847C1745.41 379.988 1734.1 385.319 1720.53 391.674L1695.87 403.218L1695.74 456.07C1695.69 492.786 1695.78 508.921 1696.09 508.921C1696.48 508.921 1748.81 484.666 1764.13 477.429C1766.14 476.476 1768.06 475.77 1768.37 475.875C1768.71 475.981 1768.93 475.875 1768.85 475.628C1768.8 475.381 1769.28 475.205 1770.16 475.24C1770.94 475.24 1771.46 475.134 1771.33 474.958C1771.2 474.816 1770.9 474.746 1770.68 474.852C1770.46 474.993 1770.29 474.887 1770.29 474.64C1770.29 474.428 1770.64 474.322 1771.16 474.428C1771.64 474.534 1771.94 474.463 1771.81 474.287C1771.6 474.004 1774 472.557 1774.69 472.557C1774.87 472.557 1775 473.51 1775 474.675C1775 476.687 1774.91 476.829 1773.52 477.535C1772.69 477.923 1771.73 478.17 1771.38 478.064C1771.03 477.958 1770.64 478.064 1770.46 478.276C1770.24 478.523 1770.37 478.559 1770.77 478.382C1771.29 478.1 1771.29 478.17 1770.77 478.665C1770.42 479.018 1770.07 479.194 1769.94 479.088C1769.81 478.982 1769.28 479.194 1768.8 479.547C1768.28 479.936 1752.3 487.491 1733.27 496.388C1714.29 505.284 1698.71 512.663 1698.71 512.769C1698.71 512.875 1712.98 519.653 1730.39 527.809C1747.81 535.929 1762.17 542.778 1762.3 542.954C1762.47 543.131 1762.34 543.166 1761.99 542.99C1761.64 542.813 1761.51 542.848 1761.69 543.096C1761.86 543.272 1762.34 543.378 1762.78 543.272C1763.22 543.202 1763.91 543.449 1764.35 543.837C1764.83 544.261 1765.57 544.578 1766.01 544.578C1766.45 544.578 1766.93 544.826 1767.06 545.108C1767.23 545.39 1767.49 545.532 1767.75 545.426C1768.41 545.108 1767.97 546.485 1767.23 546.979C1766.88 547.262 1766.84 547.367 1767.1 547.226C1767.41 547.12 1767.67 547.226 1767.71 547.473C1767.71 547.721 1767.8 548.179 1767.89 548.462C1767.93 548.815 1767.67 549.027 1767.19 549.027C1766.71 549.027 1766.4 548.815 1766.49 548.497C1766.53 548.25 1766.27 547.932 1765.92 547.862C1765.4 547.721 1765.4 547.756 1765.88 548.038C1766.18 548.215 1766.27 548.462 1766.05 548.568C1765.49 548.85 1764.44 548.25 1764.79 547.826C1764.92 547.65 1764.74 547.297 1764.44 547.085C1763.96 546.767 1763.74 546.767 1763.48 547.085C1763.3 547.332 1763.35 547.403 1763.65 547.262C1763.91 547.156 1764.22 547.191 1764.39 547.403C1765.01 548.215 1763.3 547.615 1758.55 545.39C1755.75 544.119 1750.51 541.683 1746.94 539.989C1716.86 525.938 1696.13 516.335 1695.91 516.335C1695.78 516.335 1695.65 540.13 1695.65 569.256V622.143L1709.84 628.78C1717.65 632.452 1724.02 635.559 1724.02 635.735C1724.02 635.912 1724.2 635.982 1724.37 635.876C1724.98 635.559 1727.99 637.43 1727.64 637.889C1727.43 638.171 1727.56 638.171 1728.04 637.853C1728.6 637.5 1728.78 637.5 1729 637.959C1729.13 638.277 1729.08 638.418 1728.82 638.312C1728.56 638.206 1728.39 638.383 1728.39 638.736C1728.39 639.266 1728.3 639.301 1727.91 638.842C1727.56 638.418 1727.51 638.489 1727.73 639.089C1727.91 639.583 1727.82 639.901 1727.56 639.901C1727.29 639.901 1727.08 640.113 1727.08 640.36C1727.08 640.642 1726.77 640.854 1726.42 640.854C1726.07 640.854 1725.9 640.713 1726.03 640.537C1726.16 640.395 1726.12 640.254 1725.9 640.219C1725.72 640.219 1725.24 640.148 1724.89 640.078C1724.55 640.042 1717.3 636.759 1708.79 632.84C1696.79 627.262 1693.21 625.744 1692.64 626.026C1692.25 626.203 1666.84 638.065 1636.16 652.399C1605.52 666.733 1580.43 678.56 1580.43 678.701C1580.43 678.842 1597.53 686.962 1618.48 696.742C1639.39 706.556 1657.98 715.277 1659.82 716.159C1663 717.677 1663.96 718.631 1662.87 719.195C1662.52 719.372 1662.48 719.301 1662.7 718.984C1662.96 718.666 1662.87 718.595 1662.52 718.772C1662.22 718.948 1662.09 719.301 1662.22 719.584C1662.35 719.866 1662.31 720.007 1662.09 719.902C1661.56 719.619 1660.65 720.572 1661.08 720.925C1661.35 721.173 1660.34 720.749 1657.11 719.195C1656.72 718.984 1656.46 718.631 1656.54 718.383C1656.68 718.136 1656.54 717.854 1656.28 717.713C1655.98 717.571 1655.93 717.607 1656.11 717.854C1656.28 718.101 1656.15 718.278 1655.72 718.278C1655.32 718.278 1637.6 710.157 1616.35 700.272C1595.13 690.352 1577.63 682.267 1577.54 682.267C1577.46 682.267 1577.37 705.85 1577.37 734.694C1577.37 768.269 1577.24 787.122 1576.93 787.122C1576.72 787.122 1575.89 787.581 1575.1 788.146C1570.52 791.464 1569.64 792.029 1569.25 791.711C1569.03 791.535 1568.82 791.747 1568.82 792.276C1568.73 793.229 1568.82 793.265 1569.91 792.806C1570.39 792.594 1570.91 792.594 1571.3 792.806C1571.83 793.088 1571.83 793.159 1571.26 793.088C1570.08 792.982 1569.47 793.123 1569.69 793.441C1569.95 793.759 1568.07 793.688 1567.38 793.335C1567.16 793.194 1566.85 793.441 1566.68 793.83C1566.55 794.218 1566.11 794.536 1565.76 794.536C1565.41 794.536 1564.93 794.959 1564.67 795.489C1564.36 796.195 1564.1 796.301 1563.75 796.018C1563.01 795.418 1562.62 795.489 1562.71 796.195C1562.75 796.619 1562.49 796.795 1562.01 796.725C1561.44 796.654 1561.31 796.795 1561.53 797.254C1561.79 797.819 1561.74 797.819 1561.09 797.395C1560.44 796.972 1560.17 797.078 1560.26 797.748C1560.35 798.066 1555.81 800.573 1552.93 801.844C1551.62 802.409 1549.65 803.327 1548.61 803.856C1547.56 804.386 1546.86 804.668 1546.99 804.456C1547.17 804.244 1547.08 804.068 1546.86 804.068C1546.6 804.068 1546.38 804.28 1546.38 804.527C1546.38 804.774 1545.86 805.162 1545.16 805.41C1544.5 805.657 1542.72 806.469 1541.19 807.245C1539.66 807.987 1538.18 808.516 1537.91 808.41C1537.65 808.304 1537.56 808.34 1537.74 808.481C1537.96 808.658 1537.17 809.222 1535.99 809.752C1534.25 810.564 1533.85 810.635 1533.29 810.246C1532.85 809.929 1532.41 809.858 1531.98 810.07C1531.41 810.387 1531.41 810.423 1531.98 810.458C1532.33 810.493 1532.76 810.493 1532.94 810.458C1533.16 810.458 1533.29 810.564 1533.29 810.741C1533.29 811.058 1532.15 811.553 1531.8 811.376C1531.67 811.341 1531.15 811.623 1530.58 812.047C1529.45 812.894 1525.43 814.801 1525.43 814.483C1525.43 814.377 1525.04 814.624 1524.56 815.012C1523.64 815.754 1522.55 816.001 1523.07 815.295C1523.25 815.048 1523.21 815.012 1522.86 815.154C1522.59 815.295 1522.46 815.542 1522.55 815.683C1522.9 816.107 1520.8 816.884 1520.15 816.601C1519.84 816.425 1519.71 816.46 1519.89 816.672C1520.19 817.06 1518.19 818.296 1517.27 818.296C1516.96 818.296 1516.7 818.402 1516.7 818.543C1516.7 818.825 1514.43 819.743 1513.95 819.673C1513.78 819.637 1513.65 819.779 1513.65 819.99C1513.65 820.167 1512.99 820.591 1512.21 820.873C1511.46 821.155 1510.11 821.756 1509.24 822.179C1508.37 822.603 1497.32 827.793 1484.67 833.724C1472.05 839.62 1461.71 844.562 1461.71 844.668C1461.71 844.81 1462.23 845.092 1462.84 845.304C1463.45 845.551 1463.85 845.869 1463.72 846.045C1463.58 846.186 1463.85 846.61 1464.33 846.963C1464.81 847.316 1465.2 847.493 1465.2 847.316C1465.2 847.175 1465.55 847.281 1465.94 847.528C1466.64 847.987 1466.68 847.952 1466.12 847.422C1465.81 847.069 1465.37 846.857 1465.2 846.963C1465.02 847.069 1464.63 846.893 1464.33 846.61C1464.02 846.328 1463.93 846.081 1464.06 846.081C1464.5 846.081 1468.25 847.881 1468.25 848.093C1468.25 848.163 1468.04 848.128 1467.77 848.022C1467.51 847.881 1467.38 848.022 1467.47 848.411C1467.56 848.94 1467.38 849.046 1466.42 848.976C1465.81 848.905 1465.16 849.046 1464.94 849.293C1464.76 849.576 1464.81 849.611 1465.11 849.47C1465.42 849.329 1465.64 849.293 1465.64 849.399C1465.64 849.505 1465.24 849.752 1464.76 849.964C1464.11 850.246 1463.76 850.176 1462.97 849.54C1462.45 849.081 1462.14 848.976 1462.32 849.258C1462.49 849.54 1462.23 849.399 1461.71 848.905C1461.18 848.411 1460.92 848.269 1461.1 848.552C1461.36 848.976 1461.27 849.011 1460.79 848.622C1460.49 848.411 1459.92 848.199 1459.53 848.199C1458.96 848.199 1458.87 848.587 1459 850.423L1459.13 852.612L1456.69 853.53L1454.29 854.412L1454.33 851.482C1454.38 849.858 1454.29 848.411 1454.16 848.305C1453.98 848.199 1443.99 852.718 1431.94 858.367C1419.85 863.98 1409.29 868.923 1408.46 869.311C1407.63 869.664 1405.71 870.582 1404.23 871.288C1401.39 872.63 1400.78 872.806 1401.3 872.135C1401.48 871.888 1401.43 871.853 1401.08 871.994C1400.82 872.135 1400.69 872.383 1400.78 872.524C1401.08 872.912 1398.51 874.042 1397.9 873.759C1397.59 873.618 1397.55 873.653 1397.72 873.901C1398.07 874.395 1395.54 875.525 1394.84 875.172C1394.58 875.03 1394.49 875.066 1394.62 875.278C1394.89 875.631 1392.88 876.619 1392.18 876.513C1392 876.478 1391.87 876.584 1391.87 876.796C1391.87 877.255 1389.43 878.243 1389.04 877.925C1388.82 877.784 1388.82 877.855 1388.95 878.102C1389.17 878.349 1388.69 878.667 1387.73 878.914C1386.9 879.126 1386.2 879.479 1386.2 879.655C1386.2 879.832 1385.98 879.973 1385.72 879.973C1385.46 879.973 1384.63 880.326 1383.89 880.75C1383.1 881.209 1382.66 881.315 1382.88 880.997C1383.06 880.75 1382.93 880.785 1382.62 881.103C1382.27 881.421 1381.7 881.738 1381.36 881.809C1381.05 881.879 1380.53 882.162 1380.26 882.444C1379.83 882.868 1379.65 882.868 1379.04 882.48C1378.43 882.056 1378.34 882.056 1378.56 882.515C1378.69 882.797 1378.52 883.256 1378.13 883.503C1377.78 883.751 1377.47 883.857 1377.47 883.751C1377.47 883.645 1376.47 884.104 1375.24 884.774C1374.02 885.445 1372.84 885.869 1372.63 885.763C1372.41 885.657 1372.23 885.728 1372.23 885.94C1372.23 886.293 1369.92 887.422 1369.35 887.352C1369.18 887.352 1368.92 887.458 1368.79 887.634C1368.65 887.811 1367.78 888.305 1366.91 888.729C1365.77 889.329 1365.25 889.399 1364.99 889.117C1364.81 888.87 1364.86 888.799 1365.16 888.94C1365.42 889.046 1365.73 889.011 1365.86 888.835C1366.04 888.658 1365.77 888.552 1365.38 888.587C1364.94 888.658 1364.6 888.835 1364.6 889.011C1364.6 889.611 1363.9 890.211 1362.54 890.776C1361.85 891.094 1361.37 891.165 1361.5 890.988C1361.67 890.776 1361.58 890.494 1361.32 890.388C1361.06 890.247 1360.89 890.282 1360.93 890.459C1361.1 891.271 1360.71 891.588 1358.7 892.294C1357.48 892.718 1356.52 893.248 1356.52 893.459C1356.52 893.671 1356.39 893.742 1356.22 893.636C1356.08 893.495 1355.65 893.601 1355.3 893.848C1354.73 894.201 1354.69 894.166 1354.99 893.742C1355.25 893.318 1355.21 893.283 1354.73 893.671C1354.43 893.883 1353.81 894.095 1353.42 894.095C1352.99 894.095 1352.51 894.271 1352.33 894.519C1352.11 894.766 1352.2 894.801 1352.59 894.624C1352.94 894.448 1353.07 894.483 1352.85 894.73C1352.72 894.942 1352.2 895.048 1351.72 894.978C1351.2 894.907 1350.85 895.048 1350.85 895.331C1350.85 895.613 1350.67 895.931 1350.41 896.037C1350.19 896.143 1350.1 896.037 1350.24 895.719C1350.41 895.331 1350.24 895.26 1349.58 895.401C1349.06 895.507 1348.53 895.719 1348.4 895.895C1348.27 896.072 1347.57 896.213 1346.83 896.213C1345.7 896.213 1345.57 896.284 1346.05 896.743C1346.53 897.237 1346.48 897.237 1345.43 896.955C1344.52 896.637 1344.3 896.672 1344.3 897.131C1344.3 897.414 1344.47 897.59 1344.65 897.484C1344.82 897.414 1345 897.625 1345.04 897.978C1345.09 898.367 1344.95 898.755 1344.69 898.861C1344.47 899.002 1344.43 898.79 1344.61 898.473C1344.78 898.049 1344.74 897.943 1344.34 898.12C1344.04 898.296 1343.91 898.19 1343.95 897.908C1344.17 897.202 1342.82 897.414 1339.19 898.79C1338.67 898.967 1338.32 899.249 1338.41 899.391C1338.49 899.532 1338.15 899.602 1337.53 899.567C1336.97 899.497 1336.27 899.673 1336.01 899.92C1335.66 900.238 1335.13 900.309 1334.35 900.097C1332.78 899.744 1330.33 898.579 1330.33 898.226C1330.33 898.049 1330.59 898.049 1330.86 898.19C1331.25 898.367 1331.25 898.261 1330.81 897.873C1330.16 897.237 1329.68 897.06 1330.11 897.625C1330.77 898.508 1328.76 897.731 1321.21 894.201C1316.76 892.118 1292.71 880.926 1267.79 869.311C1242.87 857.696 1222.4 848.199 1222.31 848.199C1222.18 848.199 1222.09 866.063 1222.09 887.881C1222.09 919.302 1221.96 927.599 1221.52 927.74C1221.09 927.881 1221.09 927.952 1221.52 927.952C1221.87 927.987 1222.09 928.517 1222.09 929.294C1222.09 930.529 1221.96 930.671 1220.21 931.235C1219.21 931.588 1218.12 931.871 1217.81 931.871C1217.42 931.871 1217.29 922.974 1217.2 890.035L1217.07 848.234L1160.55 874.607L1104.03 900.979L1103.9 926.858C1103.81 952.418 1103.81 952.701 1102.94 952.701C1102.46 952.701 1102.06 952.842 1102.06 953.054C1102.06 953.23 1101.37 953.407 1100.54 953.407H1099.01L1098.92 927.211L1098.79 900.979L1042.27 874.607L985.746 848.234L985.616 901.085C985.528 943.063 985.659 954.007 986.052 954.325C986.532 954.642 992.468 957.467 1001.24 961.562C1001.85 961.845 1002.42 962.162 1002.55 962.268C1002.68 962.409 1003.2 962.586 1003.73 962.727C1004.3 962.868 1004.73 963.151 1004.73 963.327C1004.73 963.539 1004.91 963.61 1005.13 963.504C1005.34 963.398 1005.74 963.539 1006 963.786C1006.39 964.175 1006.39 964.351 1006 964.563C1005.65 964.704 1005.61 964.669 1005.78 964.422C1006.13 963.928 1006 963.928 1001.72 964.316C998.404 964.634 997.138 964.528 997.575 963.963C997.706 963.786 997.531 963.751 997.182 963.857C996.833 963.963 996.44 963.786 996.309 963.504C996.134 963.186 995.698 962.939 995.261 962.939C994.17 962.939 991.988 961.703 992.381 961.35C992.599 961.209 992.468 961.174 992.206 961.315C991.901 961.456 989.849 960.68 987.449 959.55C982.604 957.255 983.739 957.114 975.882 960.821C972.958 962.198 970.296 963.257 969.99 963.151C969.641 963.045 969.423 963.151 969.51 963.398C969.554 963.645 969.336 963.786 969.03 963.716C968.768 963.68 968.506 963.786 968.506 963.998C968.506 964.175 968.07 964.492 967.59 964.74C967.066 964.951 966.76 964.987 966.891 964.81C967.066 964.634 966.891 964.457 966.586 964.457C966.237 964.457 966.062 964.669 966.193 964.951C966.324 965.199 966.062 965.516 965.626 965.658C965.145 965.763 964.316 966.116 963.749 966.434C962.439 967.105 961.436 967.246 961.828 966.717C962.047 966.399 961.959 966.399 961.479 966.717C961.13 966.928 960.257 967.176 959.559 967.246C958.817 967.317 958.293 967.529 958.337 967.776C958.424 968.023 958.162 968.129 957.769 967.988C957.202 967.811 957.202 967.74 957.682 967.493C958.031 967.282 957.682 967.282 956.853 967.387C955.936 967.529 955.151 967.458 954.67 967.14C954.19 966.787 954.059 966.787 954.278 967.105C954.496 967.387 954.234 967.529 953.361 967.529C952.401 967.529 952.27 967.458 952.794 967.14C954.583 966.187 956.809 965.41 957.246 965.622C957.507 965.763 957.595 965.728 957.42 965.481C957.289 965.269 957.464 964.951 957.9 964.775C958.468 964.492 958.817 964.563 959.21 964.987C959.646 965.446 959.733 965.446 959.559 965.057C959.428 964.775 959.515 964.351 959.69 964.139C959.864 963.928 964.622 961.597 970.252 958.95L980.509 954.148L980.64 901.474C980.684 872.488 980.596 848.658 980.422 848.552C980.203 848.411 954.67 860.167 923.682 874.642L867.247 900.979V935.472V970H864.628H862.01V935.472V900.979L805.619 874.677C774.63 860.202 749.097 848.305 748.922 848.269C748.704 848.199 748.573 871.747 748.617 901.156L748.748 954.148L760.314 959.585C766.686 962.586 771.837 965.199 771.749 965.41C771.706 965.658 771.837 965.728 772.099 965.587C772.535 965.375 774.848 966.258 775.939 967.105C776.419 967.458 776.376 967.529 775.721 967.423C775.285 967.387 774.674 967.176 774.324 967.034C773.888 966.823 773.801 966.858 774.019 967.105C774.237 967.387 773.932 967.493 773.059 967.387C771.444 967.246 770.702 966.858 771.051 966.399C771.226 966.152 771.138 966.116 770.833 966.258C770.571 966.399 770.44 966.681 770.571 966.858C770.964 967.317 768.432 967.246 767.865 966.787C767.559 966.54 767.297 966.54 767.123 966.787C766.774 967.211 763.98 966.011 762.802 964.916C762.365 964.492 762.104 964.387 762.278 964.634C762.54 965.022 762.409 965.057 761.667 964.74C760.838 964.351 760.532 963.928 760.707 963.186C760.751 963.01 760.576 962.974 760.314 963.116C760.052 963.221 759.965 963.469 760.096 963.645C760.227 963.786 759.834 963.751 759.223 963.539C758.612 963.292 758.132 963.01 758.132 962.833C758.132 962.692 757.914 962.586 757.652 962.586C757.346 962.586 754.727 961.456 751.847 960.115C748.922 958.738 746.391 957.643 746.173 957.643C745.998 957.643 743.99 958.526 741.721 959.585C739.451 960.68 737.356 961.456 737.094 961.315C736.832 961.174 736.745 961.209 736.876 961.421C737.138 961.739 736.352 962.233 735.654 962.198C735.523 962.198 735.087 962.445 734.694 962.763C734.345 963.08 733.734 963.257 733.428 963.151C733.123 963.045 732.73 963.151 732.555 963.363C732.381 963.61 732.424 963.645 732.73 963.504C733.035 963.363 733.253 963.327 733.253 963.433C733.253 963.539 732.642 963.857 731.944 964.175C730.766 964.669 730.46 964.634 730.591 963.928C730.591 963.822 730.067 963.928 729.413 964.175C728.19 964.634 725.223 964.492 725.615 963.998C725.965 963.504 723.782 963.822 722.909 964.387C722.167 964.846 722.167 964.846 722.866 964.175C723.258 963.786 724.917 962.904 726.576 962.233C728.19 961.562 729.631 960.927 729.762 960.785C729.893 960.68 732.992 959.197 736.701 957.467C740.368 955.737 743.467 954.148 743.554 953.936C743.641 953.76 743.685 929.894 743.641 900.909L743.51 848.234L686.989 874.607L630.467 900.979L630.336 927.211L630.249 953.407H628.721C627.892 953.407 627.193 953.23 627.193 953.054C627.193 952.842 626.8 952.701 626.32 952.701C625.447 952.701 625.447 952.418 625.36 926.858L625.229 900.979L568.707 874.607L512.186 848.234L512.055 890.247L511.967 932.259L510.964 932.047C510.44 931.906 509.349 931.553 508.563 931.271L507.166 930.741V889.47C507.166 866.769 507.079 848.199 506.948 848.199C506.861 848.199 492.85 854.695 475.872 862.603C408.657 893.954 402.852 896.602 402.372 896.354C402.023 896.213 401.979 896.248 402.154 896.496C402.546 897.025 400.059 898.049 399.491 897.59C399.229 897.378 398.837 897.449 398.444 897.873C397.876 898.437 397.92 898.473 398.575 898.014C399.098 897.696 399.36 897.661 399.36 897.943C399.36 898.155 398.837 898.543 398.138 898.79C397.484 899.002 396.872 899.285 396.742 899.426C396.611 899.532 396.13 899.814 395.607 900.026C394.472 900.52 392.333 899.991 386.005 897.59C385.044 897.237 383.997 896.919 383.691 896.919C383.386 896.919 383.299 896.743 383.473 896.496C383.691 896.248 383.604 896.213 383.255 896.39C382.775 896.602 380.505 896.037 378.323 895.119C377.232 894.66 377.101 894.73 377.406 895.331C377.537 895.648 377.013 895.401 376.271 894.801C374.875 893.671 374.526 893.142 375.442 893.601C375.748 893.742 375.791 893.707 375.617 893.424C375.399 893.177 375.049 893.142 374.569 893.354C373.696 893.742 371.776 893.106 372.169 892.541C372.343 892.33 372.125 892.365 371.732 892.647C371.252 892.965 370.99 893 370.99 892.718C370.99 892.506 370.685 892.33 370.336 892.33C369.986 892.33 369.681 892.188 369.681 892.012C369.681 891.624 370.554 891.094 371.165 891.094C371.383 891.094 371.601 890.882 371.689 890.635C371.732 890.388 371.689 890.353 371.601 890.529C371.427 890.776 370.903 890.67 370.205 890.353C369.332 889.929 369.244 889.929 369.768 890.282C370.51 890.776 370.51 890.847 369.725 891.412C368.939 892.012 368.852 892.012 368.415 891.341C368.153 890.953 368.11 890.529 368.284 890.388C368.459 890.211 368.328 890.211 368.022 890.353C367.717 890.494 367.586 890.776 367.76 890.988C367.891 891.165 367.411 891.094 366.713 890.776C365.36 890.211 364.662 889.611 364.662 889.011C364.662 888.835 364.312 888.658 363.876 888.587C363.483 888.552 363.221 888.658 363.396 888.835C363.527 889.011 363.832 889.046 364.094 888.94C364.4 888.799 364.443 888.87 364.269 889.117C364.051 889.399 363.614 889.364 362.654 888.905C361.956 888.552 361.388 888.164 361.388 887.987C361.388 887.846 361.17 887.811 360.952 887.917C360.69 888.022 360.515 887.952 360.515 887.775C360.515 887.564 360.21 887.387 359.861 887.387C359.511 887.387 359.206 887.21 359.206 886.999C359.206 886.822 359.38 886.716 359.555 886.822C359.773 886.928 359.948 886.787 359.948 886.504C359.948 886.045 359.817 886.045 359.162 886.54C358.464 887.034 358.333 887.034 357.504 886.363C356.98 885.94 356.5 885.622 356.369 885.622C356.238 885.622 355.932 885.622 355.714 885.622C355.452 885.622 355.278 885.445 355.278 885.233C355.278 885.057 355.409 884.951 355.583 885.022C355.801 885.128 356.325 885.057 356.805 884.88C357.547 884.633 357.504 884.598 356.5 884.669C355.845 884.739 355.19 884.88 355.016 885.022C354.841 885.128 354.099 884.88 353.357 884.457C352.615 884.033 351.786 883.68 351.568 883.68C351.306 883.645 351.175 883.468 351.219 883.221C351.306 883.009 351.044 882.903 350.738 883.009C350.389 883.115 349.691 882.868 349.211 882.48C348.687 882.056 348.207 881.738 348.076 881.738C347.945 881.738 347.64 881.738 347.378 881.738C347.072 881.738 346.985 881.421 347.116 880.926C347.378 880.22 347.334 880.185 346.81 880.785C346.461 881.138 346.112 881.279 346.068 881.138C345.981 880.997 345.108 880.538 344.192 880.15C342.489 879.443 342.009 878.631 343.406 878.843C344.017 878.949 343.973 878.879 343.275 878.455C342.402 877.89 341.529 877.996 341.966 878.596C342.271 878.949 341.704 879.02 340.7 878.702C340.307 878.596 340.089 878.384 340.22 878.243C340.307 878.102 340.176 877.961 339.871 877.961C338.91 877.961 333.498 875.278 333.76 874.924C333.891 874.713 333.847 874.677 333.586 874.783C333.193 874.995 329.134 873.477 328.654 872.947C328.523 872.806 327.606 872.347 326.602 871.924C325.598 871.5 313.639 865.992 300.065 859.638C286.491 853.283 275.274 848.199 275.1 848.305C274.969 848.411 274.881 849.893 274.925 851.553C274.969 853.212 274.881 854.554 274.794 854.554C274.663 854.554 273.921 854.236 273.136 853.848C272.35 853.459 271.346 853.141 270.953 853.141C270.342 853.141 270.211 852.788 270.255 850.847C270.299 849.576 270.211 848.446 270.08 848.34C269.906 848.234 269.251 848.375 268.509 848.693C267.811 848.976 267.069 849.117 266.894 848.976C266.676 848.834 266.676 848.905 266.807 849.117C267.2 849.682 265.279 850.317 264.363 849.893C263.926 849.717 263.752 849.399 263.883 849.187C264.101 848.94 263.97 848.87 263.533 849.011C263.141 849.117 262.617 849.011 262.311 848.799C261.875 848.481 261.831 848.481 262.049 848.905C262.268 849.223 262.137 849.187 261.744 848.799C261.046 848.128 260.347 847.952 260.827 848.622C261.002 848.87 260.958 848.905 260.653 848.764C259.867 848.375 259.911 848.375 262.53 847.175C265.192 845.939 265.716 845.833 264.93 846.61C264.625 846.893 264.232 847.069 264.057 846.963C263.883 846.857 263.446 847.069 263.141 847.422C262.573 847.952 262.617 847.987 263.272 847.528C263.708 847.281 264.057 847.175 264.057 847.316C264.057 847.493 264.45 847.316 264.93 846.963C265.41 846.61 265.672 846.186 265.541 846.045C265.41 845.869 265.803 845.551 266.414 845.304C267.025 845.092 267.549 844.81 267.549 844.668C267.549 844.562 255.459 838.843 240.707 831.959C225.91 825.074 213.515 819.178 213.078 818.896C212.642 818.613 212.075 818.331 211.769 818.26C210.853 818.119 207.579 816.354 207.186 815.824C206.968 815.577 206.663 815.436 206.444 815.542C205.833 815.86 204.175 815.048 204.524 814.589C204.698 814.377 204.655 814.271 204.437 814.412C203.782 814.73 201.119 813.671 201.469 813.212C201.643 812.929 201.6 812.894 201.25 813.035C200.596 813.388 198.588 812.329 198.763 811.729C198.806 811.517 198.806 811.411 198.719 811.553C198.588 811.729 198.326 811.835 198.152 811.835C197.54 811.835 192.303 809.293 191.692 808.693C191.212 808.234 191.168 808.234 191.43 808.658C191.692 809.081 191.605 809.081 190.906 808.622C190.47 808.304 189.728 807.951 189.291 807.846C188.855 807.704 188.637 807.457 188.768 807.245C188.899 807.069 188.768 806.998 188.418 807.104C188.069 807.21 187.458 807.034 187.065 806.716C186.673 806.398 186.367 806.257 186.367 806.398C186.367 806.539 186.018 806.398 185.581 806.116C185.189 805.798 184.403 805.445 183.836 805.304C183.268 805.162 182.919 804.88 183.006 804.633C183.137 804.386 183.006 804.174 182.744 804.139C181.479 804.068 180.082 803.68 179.646 803.327C179.296 803.009 179.34 802.973 179.776 803.185C180.213 803.362 180.3 803.327 180.082 803.044C179.907 802.832 179.602 802.726 179.384 802.832C178.554 803.256 170.349 799.161 170.567 798.419C170.654 798.066 170.567 798.031 170.087 798.349C169.651 798.666 169.389 798.666 168.996 798.349C168.298 797.784 168.341 797.254 168.996 797.572C169.389 797.748 169.389 797.642 168.952 797.254C168.298 796.619 167.817 796.442 168.254 797.007C168.385 797.184 168.254 797.36 167.905 797.36C167.25 797.36 165.286 795.807 165.635 795.524C165.766 795.454 165.548 795.348 165.199 795.348C164.719 795.348 164.675 795.489 165.024 795.842C165.373 796.16 165.373 796.301 165.024 796.301C164.762 796.301 164.457 795.913 164.282 795.418C164.151 794.924 163.715 794.536 163.409 794.536C163.06 794.536 162.667 794.289 162.536 794.006C162.362 793.724 162.1 793.477 161.838 793.477C161.62 793.477 161.576 793.688 161.751 793.9C161.925 794.147 161.532 793.9 160.921 793.371C159.699 792.347 159.481 792.029 160.048 792.1C160.921 792.206 161.096 792.029 160.616 791.535C160.267 791.182 160.223 791.005 160.529 791.005C160.79 791.005 161.314 791.429 161.663 791.958C162.012 792.523 162.362 792.735 162.405 792.488C162.449 792.276 162.493 791.923 162.536 791.747C162.624 791.076 163.147 791.005 163.715 791.605C164.238 792.1 164.238 792.17 163.715 791.888C163.322 791.711 163.191 791.747 163.409 791.994C163.54 792.206 164.064 792.311 164.544 792.241C164.98 792.17 165.591 792.347 165.897 792.629C166.159 792.912 166.683 793.123 166.988 793.123C167.337 793.123 167.992 793.441 168.472 793.83C168.952 794.218 169.476 794.536 169.651 794.536C170.436 794.536 171.527 794.959 171.527 795.242C171.527 795.383 172.007 795.63 172.575 795.736C173.186 795.842 173.928 796.16 174.233 796.407C174.539 796.654 175.936 797.325 177.332 797.89C178.947 798.56 179.776 799.09 179.602 799.408C179.515 799.655 179.602 799.761 179.82 799.655C180.431 799.337 182.09 799.796 181.784 800.184C181.653 800.361 181.784 800.608 182.046 800.749C182.395 800.891 182.439 800.855 182.264 800.608C181.784 799.937 182.133 800.079 186.018 801.914C187.982 802.832 201.338 809.081 215.61 815.718C229.882 822.391 247.864 830.758 255.546 834.359C263.228 837.96 269.644 840.961 269.819 841.032C270.037 841.103 270.168 817.307 270.168 788.11L270.124 735.047L213.777 708.745C182.788 694.27 157.255 682.408 157.08 682.337C156.862 682.267 156.688 705.709 156.688 734.447C156.688 775.93 156.557 786.733 156.12 786.875C155.684 787.016 155.684 787.086 156.12 787.086C156.426 787.122 156.688 787.404 156.688 787.722C156.688 788.146 157.692 788.781 159.525 789.558C161.096 790.228 162.362 790.935 162.362 791.076C162.362 791.464 161.751 791.429 161.183 790.97C160.659 790.546 159.568 790.864 159.961 791.358C160.092 791.535 160.005 791.747 159.743 791.888C159.219 792.135 154.156 788.993 152.76 787.581C151.887 786.698 151.887 786.239 151.887 734.482C151.887 705.744 151.799 682.267 151.712 682.267C151.625 682.267 134.297 690.316 113.172 700.166C92.0913 709.981 74.5019 718.066 74.1091 718.066C73.7163 718.066 73.4981 718.242 73.629 718.419C73.8036 718.631 73.5854 718.631 73.0616 718.489C72.6252 718.348 72.4069 718.348 72.5815 718.489C72.7561 718.631 71.8832 719.301 70.6174 719.937C68.6534 720.925 68.2169 720.996 67.8241 720.572C67.213 719.937 66.602 719.866 67.0384 720.466C67.213 720.749 67.1257 720.749 66.7329 720.431C66.2528 720.043 66.2092 719.937 66.6893 719.796C67.1257 719.654 67.0384 719.407 66.3401 718.807L65.4235 718.03L67.3876 717.077C69.8318 715.912 70.4428 715.912 68.7406 717.077C67.955 717.642 67.7804 717.854 68.3478 717.607C69.2644 717.254 70.5738 716.159 70.3556 715.912C70.0064 715.524 70.3556 715.453 70.923 715.806C71.4904 716.195 71.5776 716.159 71.3594 715.771C71.2285 715.418 73.2798 714.288 78.0373 712.064C118.977 692.964 148.831 678.913 148.831 678.701C148.831 678.56 123.429 666.591 92.3969 652.081L36.006 625.709L33.6055 626.768C32.2961 627.333 24.8326 630.792 17.0199 634.429C3.96974 640.501 0.870867 641.808 1.52556 640.96C1.6565 640.784 1.56921 640.572 1.30733 640.431C1.0891 640.325 0.870867 639.972 0.870867 639.689C0.870867 639.407 1.04545 639.23 1.26368 639.372C1.48191 639.477 1.78744 639.407 1.96202 639.23C2.09296 639.018 1.83108 638.948 1.30733 639.018C0.827221 639.089 0.434406 638.983 0.434406 638.807C0.434406 638.595 0.259821 638.56 -0.00205575 638.665C-0.263933 638.771 -0.307579 638.63 -0.17664 638.312C-0.00205575 637.995 0.39076 637.818 0.739929 637.924C1.0891 638.03 1.22004 637.995 1.0891 637.783C0.95816 637.606 1.26368 637.289 1.74379 637.077C2.2239 636.865 2.61671 636.83 2.61671 636.971C2.61671 637.112 2.92224 636.971 3.22776 636.618C3.57693 636.265 4.18798 635.912 4.58079 635.876C4.97361 635.841 5.45371 635.629 5.58465 635.453C5.75924 635.241 12.1316 632.169 19.726 628.639L33.6055 622.143V569.221C33.6055 523.713 33.5182 516.299 32.9944 516.441C32.6453 516.546 24.7453 520.218 15.405 524.561C6.10841 528.903 -5.54512 534.34 -10.4771 536.635C-15.4092 538.93 -22.087 542.036 -25.3605 543.59C-28.6339 545.108 -31.5146 546.344 -31.8201 546.344C-32.082 546.344 -32.3002 546.485 -32.3002 546.697C-32.3002 546.873 -32.5184 547.05 -32.7803 547.05C-33.0422 547.05 -33.7842 547.367 -34.4389 547.721C-35.0936 548.109 -35.9228 548.462 -36.272 548.533C-36.6212 548.603 -37.014 548.78 -37.1886 548.992C-37.6687 549.556 -38.8035 548.391 -39.0217 547.156C-39.109 546.555 -38.9781 545.849 -38.7598 545.567C-38.4543 545.214 -38.4107 545.285 -38.5853 545.743C-38.7162 546.132 -38.6726 546.308 -38.4107 546.167C-38.1488 546.061 -37.9742 545.708 -37.9742 545.461C-37.9742 544.931 -36.4902 544.119 -36.1411 544.437C-36.0101 544.508 -35.661 544.367 -35.3991 544.084C-35.0936 543.802 -20.1666 536.67 -2.14072 528.268C15.8415 519.865 30.5066 512.875 30.4193 512.698C30.3757 512.557 18.242 506.802 3.48964 499.883C-26.0588 486.043 -38.498 480.218 -40.9422 478.982C-41.8151 478.559 -42.9935 478.029 -43.5609 477.853C-44.4338 477.535 -44.7394 477.111 -44.5648 476.334C-44.5211 476.158 -44.6957 476.123 -44.9576 476.264C-45.2195 476.37 -45.2631 476.687 -45.0885 476.899C-44.914 477.146 -45.1322 477.111 -45.5686 476.829C-46.136 476.44 -46.3106 475.875 -46.2233 474.357C-46.1797 472.945 -46.267 472.416 -46.6598 472.486C-46.9653 472.522 -47.0963 472.416 -46.9217 472.204C-46.7034 471.921 -46.4416 471.921 -46.0051 472.239C-45.6996 472.451 -45.525 472.804 -45.6996 473.016C-45.8742 473.228 -45.7432 473.263 -45.3941 473.086C-44.783 472.769 -41.0294 474.251 -41.0294 474.816C-41.0294 474.958 -41.2913 474.922 -41.6405 474.71C-42.077 474.393 -42.3388 474.428 -42.7753 474.816C-43.2118 475.275 -43.1245 475.346 -42.3388 475.205C-41.7278 475.099 -41.4659 475.205 -41.5968 475.487C-41.7278 475.734 -42.0333 475.875 -42.2952 475.805C-42.6007 475.77 -42.688 475.875 -42.5571 476.087C-42.3825 476.299 -42.1206 476.405 -41.9897 476.299C-41.8587 476.193 -41.335 476.37 -40.8549 476.687C-39.9383 477.323 -39.9383 477.323 -40.6366 476.617C-41.3786 475.875 -41.2913 475.028 -40.5057 475.028C-40.2438 475.028 -36.6648 476.582 -32.5621 478.523C18.9404 502.531 32.7326 508.921 33.1254 508.921C33.4745 508.921 33.5618 494.093 33.5182 456.07L33.3873 403.218L11.3459 392.874C-0.787687 387.19 -12.1793 381.859 -13.9688 381.047C-16.4567 379.882 -17.2423 379.352 -17.1986 378.788C-17.155 378.399 -17.4169 378.046 -17.7224 378.046C-18.1589 378.046 -18.2025 378.187 -17.8533 378.54C-16.9804 379.352 -18.2898 379.07 -20.7776 377.834C-22.9163 376.846 -23.1345 376.599 -22.8726 375.822C-22.7417 375.328 -22.5671 374.763 -22.5235 374.516C-22.4798 374.269 -22.3052 373.951 -22.1307 373.845C-21.9561 373.704 -22.0434 373.386 -22.3489 373.104C-22.6981 372.715 -22.6544 372.68 -22.087 372.856C-21.6506 372.998 -21.4323 373.315 -21.5633 373.562C-21.8688 374.163 -21.1268 374.551 -20.6903 374.021C-20.4721 373.739 -20.5594 373.704 -20.9522 373.88C-21.345 374.092 -21.4323 374.021 -21.1704 373.704C-20.9086 373.351 -20.6903 373.351 -20.2975 373.81C-19.992 374.127 -19.6865 374.304 -19.5555 374.233C-19.4246 374.127 -18.6826 374.41 -17.8533 374.869C-17.0241 375.328 -16.0638 375.787 -15.7147 375.893C-15.3655 375.999 -3.58104 381.435 10.3857 387.967L35.8751 399.829L92.3532 373.457C123.429 358.911 148.831 346.943 148.831 346.802C148.831 346.696 139.055 342 127.096 336.422C115.18 330.844 89.8654 318.981 70.8357 310.085C51.8059 301.188 35.9187 293.915 35.5259 293.915C34.9585 293.915 34.9149 293.809 35.3077 293.421C35.7005 293.032 35.7005 292.856 35.264 292.644C34.9585 292.503 34.8276 292.538 35.0458 292.679C35.2204 292.856 35.0022 293.28 34.6093 293.668C34.1292 294.092 34.0856 294.268 34.4348 294.092C34.8712 293.915 34.9585 293.95 34.7403 294.233C34.5657 294.445 34.2165 294.551 33.9983 294.445C33.7801 294.303 33.6055 294.374 33.6055 294.515C33.6055 295.01 30.6375 296.139 29.9392 295.927C29.4591 295.786 29.3718 295.892 29.5464 296.28C29.7646 296.739 29.6337 296.81 28.8917 296.669C28.3679 296.528 28.0188 296.598 28.1497 296.775C28.3679 297.022 26.5785 298.116 24.1779 299.14C23.3923 299.458 23.1304 299.423 22.6503 298.964C22.3011 298.646 22.2575 298.469 22.4757 298.575C23.1304 298.893 24.0906 298.187 25.7492 296.21C27.626 293.95 27.495 294.056 27.8878 294.586C28.1497 294.939 28.3243 294.904 28.4989 294.445C28.6735 294.127 28.6298 293.986 28.4116 294.092C28.1934 294.198 27.8442 294.092 27.6696 293.88C27.3204 293.421 28.3679 292.821 28.979 293.103C29.1972 293.209 29.2409 293.138 29.0663 292.927C28.7171 292.432 30.3757 291.656 31.2049 291.938C31.5541 292.044 31.9469 291.938 32.1215 291.726C32.2961 291.479 32.2525 291.444 31.9469 291.585C31.6414 291.726 31.4232 291.691 31.4232 291.514C31.4232 291.338 31.9033 291.02 32.5143 290.808C33.4745 290.455 33.6055 290.173 33.6055 288.584C33.6055 286.889 34.8276 284.453 35.8751 284.1C36.0497 284.03 36.2243 283.747 36.2243 283.465C36.2243 283.182 36.5298 282.865 36.9226 282.723C37.3154 282.618 37.7955 282.194 38.0138 281.77C38.232 281.311 38.3629 282.723 38.2756 285.689L38.1883 290.314L43.8623 292.962C60.3606 300.658 104.53 321.241 126.31 331.409C139.971 337.764 151.319 342.989 151.537 342.989C151.712 342.989 151.887 319.193 151.887 290.102L151.843 237.251L131.155 227.542C119.719 222.211 109.55 217.445 108.502 216.986L106.582 216.139L108.328 214.762C109.288 214.021 110.204 213.42 110.379 213.42C110.554 213.42 111.077 213.738 111.514 214.126C111.907 214.48 112.43 214.762 112.561 214.727C112.736 214.691 122.076 218.928 133.337 224.153C144.554 229.378 153.982 233.65 154.287 233.65C154.549 233.65 167.556 227.719 183.137 220.411C198.719 213.138 223.815 201.417 238.961 194.356C254.062 187.295 266.72 181.364 266.982 181.152C267.418 180.834 260.609 177.516 239.266 167.56C223.728 160.287 210.591 154.038 210.023 153.65C209.5 153.261 209.063 153.085 209.063 153.261C209.063 153.438 208.888 153.402 208.714 153.226C208.539 153.014 207.841 152.484 207.099 151.99C206.182 151.355 206.008 151.284 206.444 151.814C207.099 152.484 207.055 152.484 206.051 151.955C204.48 151.143 204.48 150.719 206.008 150.19C206.706 149.907 207.317 149.554 207.317 149.378C207.317 149.236 207.579 149.166 207.928 149.272C208.277 149.378 208.67 149.307 208.801 149.06C208.932 148.742 209.019 148.777 209.019 149.095C209.063 149.342 209.238 149.448 209.5 149.342C209.892 149.131 210.111 149.625 209.98 150.331C209.936 150.507 210.111 150.543 210.372 150.401C210.634 150.296 210.678 149.978 210.503 149.766C210.329 149.519 210.678 149.589 211.245 149.907C211.856 150.225 212.337 150.649 212.337 150.86C212.337 151.072 212.642 151.461 212.991 151.708C213.515 152.096 213.515 152.096 213.035 151.531C212.642 151.143 212.598 150.931 212.948 150.931C213.209 150.931 225.867 156.721 241.056 163.817C256.245 170.878 269.033 176.774 269.426 176.915C270.124 177.127 270.168 175.15 270.168 147.259C270.168 120.816 270.255 117.392 270.822 117.392C271.564 117.392 273.005 116.791 274.183 116.015C274.925 115.556 274.969 117.039 274.969 146.341C274.969 175.503 275.012 177.127 275.711 176.951C276.147 176.845 301.637 165.018 332.363 150.649L388.231 124.558L388.361 98.5389C388.449 70.6482 388.405 71.4955 390.587 71.4955C391.068 71.4955 391.591 71.319 391.722 71.1425C391.853 70.9306 392.29 70.7894 392.639 70.7894C393.163 70.7894 393.25 72.6959 393.25 83.7815C393.25 90.9484 393.381 103.023 393.555 110.648L393.817 124.488L396.698 125.865C408.657 131.549 506.512 177.057 506.817 177.057C506.992 177.057 507.123 153.261 507.079 124.17L506.948 71.319L484.994 61.0453C472.904 55.3613 462.647 50.4539 462.211 50.1362C461.251 49.4301 461.512 48.6181 462.473 49.2888C462.778 49.5007 462.996 49.8184 462.865 49.9596C462.735 50.1362 462.822 50.348 463.084 50.4892C463.302 50.5951 463.52 50.4539 463.52 50.1009C463.52 49.6066 463.607 49.5713 464.262 49.9949C464.742 50.348 464.873 50.348 464.655 50.0302C464.437 49.7478 464.655 49.6066 465.222 49.6066C465.746 49.6066 466.139 49.4654 466.139 49.2888C466.139 48.9005 468.889 49.077 470.023 49.6066C470.547 49.8184 470.809 50.1715 470.678 50.3833C470.504 50.5951 470.547 50.6657 470.853 50.5245C471.42 50.2421 471.682 50.3833 492.719 60.1627L509.436 67.965L548.587 49.7125C570.104 39.686 591.403 29.7654 595.986 27.6471C600.525 25.5288 604.585 23.6576 604.934 23.4811C606.592 22.6691 612.179 20.1272 612.572 19.986C612.79 19.9153 613.357 19.6329 613.75 19.3152C614.187 19.0327 614.536 18.9268 614.536 19.068C614.536 19.2092 614.929 19.068 615.365 18.7503C615.889 18.3619 616.282 18.256 616.5 18.5032C616.631 18.715 617.067 18.8915 617.417 18.8915C617.766 18.8915 617.984 18.7856 617.897 18.6091C617.766 18.4679 618.289 18.3619 619.031 18.3619C619.817 18.3266 621.126 18.2207 621.956 18.1148C627.761 17.3028 629.943 16.9851 632.518 16.5967C635.093 16.2083 635.53 16.2437 636.228 16.7379C636.708 17.0557 637.319 17.3381 637.668 17.4087C638.018 17.4793 638.41 17.6558 638.541 17.7971C638.672 17.9383 639.109 18.1501 639.545 18.2913C639.938 18.4325 640.243 18.715 640.2 18.9268C640.113 19.1386 640.549 19.3505 641.16 19.3858C642.208 19.4564 650.937 23.4458 716.013 53.8432C732.337 61.469 745.911 67.7179 746.173 67.7179C746.784 67.7179 859.347 15.2551 859.391 14.9374C859.391 14.8315 854.546 12.4307 848.567 9.67698C842.631 6.88791 837.437 4.27536 837 3.88701C836.564 3.49866 836.346 3.39275 836.52 3.67518C836.738 4.02823 836.433 3.95762 835.429 3.49866C834.687 3.14561 834.076 2.72196 834.076 2.54543C834.076 2.40421 833.901 2.3336 833.683 2.43952C833.465 2.54543 833.072 2.40421 832.767 2.12178C832.33 1.69812 832.33 1.45099 832.81 0.956722C833.378 0.391846 833.378 0.391846 832.505 0.956722C831.37 1.76873 831.152 1.73342 830.584 0.921417C830.017 0.0741042 830.715 -0.349552 831.457 0.356542ZM830.584 0.321237C830.584 0.391846 830.934 0.674284 831.326 0.921417C832.025 1.38038 832.068 1.34507 831.501 0.780198C830.934 0.215323 830.584 0.0387995 830.584 0.321237ZM834.513 1.59221C834.513 1.76873 834.731 1.94525 834.993 1.94525C835.211 1.94525 835.298 1.76873 835.167 1.59221C835.036 1.38038 834.818 1.23916 834.687 1.23916C834.6 1.23916 834.513 1.38038 834.513 1.59221ZM893.391 3.11031C893.828 3.42805 893.871 3.39275 893.609 2.89848C893.478 2.54543 893.217 2.36891 893.086 2.47482C892.955 2.58074 893.086 2.86318 893.391 3.11031ZM885.579 3.53396C885.579 3.60457 885.84 3.8164 886.146 4.02823C886.582 4.31067 886.757 4.27536 886.757 3.95762C886.757 3.67518 886.495 3.46335 886.146 3.46335C885.84 3.46335 885.579 3.49866 885.579 3.53396ZM843.067 3.63988C842.936 3.8164 843.111 3.95762 843.46 3.95762C843.809 3.95762 843.984 3.8164 843.853 3.63988C843.722 3.49866 843.547 3.35744 843.46 3.35744C843.373 3.35744 843.198 3.49866 843.067 3.63988ZM840.274 4.59311C840.405 4.69902 840.667 4.5225 840.798 4.16945C841.059 3.67518 841.016 3.63988 840.579 3.95762C840.274 4.20475 840.143 4.48719 840.274 4.59311ZM634.875 17.444C634.744 17.5852 635.093 18.0795 635.661 18.5032C636.621 19.2446 636.664 19.2446 637.363 18.6091C637.974 18.0795 637.974 17.9383 637.494 17.9383C637.145 17.9383 636.883 18.0442 636.926 18.1501C636.97 18.256 636.795 18.3972 636.577 18.4325C636.315 18.5032 636.141 18.4325 636.141 18.256C636.141 17.9383 635.486 17.1263 635.268 17.1263C635.181 17.1263 635.006 17.2675 634.875 17.444ZM1093.99 18.5385C1094.12 18.6797 1093.9 18.9974 1093.55 19.2446C1092.85 19.7035 1093.12 20.4802 1093.81 20.0919C1094.03 19.986 1094.12 19.7388 1093.99 19.5623C1093.81 19.3858 1093.9 19.2446 1094.16 19.2446C1094.38 19.2446 1094.56 18.9268 1094.51 18.5738C1094.51 18.1854 1094.29 17.9736 1094.12 18.0442C1093.9 18.1501 1093.86 18.3619 1093.99 18.5385ZM1097.13 19.1386C1096.35 19.4564 1095.65 19.7388 1095.52 19.7741C1095.39 19.7741 1094.51 20.1978 1093.55 20.7274C1092.07 21.5041 1047.55 42.3691 998.753 65.176L985.528 71.319V124.17C985.528 153.261 985.616 177.057 985.746 177.057C985.877 177.057 1011.41 165.194 1042.49 150.684L1099.01 124.311L1099.1 71.5661C1099.18 42.581 1099.14 18.7503 1099.05 18.6797C1098.75 18.4679 1098.62 18.5032 1097.13 19.1386ZM867.334 71.5308L867.465 124.488L923.769 150.79L980.072 177.057L980.378 168.866C980.553 164.347 980.684 140.551 980.596 115.979L980.509 71.3543L924.205 44.9817C893.217 30.4714 867.771 18.6091 867.553 18.5738C867.378 18.5385 867.291 42.3691 867.334 71.5308ZM805.226 44.9464L748.748 71.3543L748.617 124.205C748.573 153.261 748.661 177.057 748.879 177.057C749.053 177.057 774.543 165.229 805.488 150.79L861.791 124.488L861.922 71.5308C861.966 42.3691 861.922 18.5385 861.879 18.5385C861.791 18.5385 836.302 30.4361 805.226 44.9464ZM629.157 18.8915C628.983 19.1033 629.114 19.2092 629.463 19.1739C629.943 19.068 630.03 28.2473 630.161 71.7073L630.249 124.311L686.77 150.684C717.846 165.194 743.379 177.057 743.51 177.057C743.641 177.057 743.729 153.261 743.729 124.17V71.319L730.722 65.2466C679.481 41.3453 637.188 21.5394 635.792 20.798C634.351 20.0213 634.177 19.8447 634.657 19.3152C635.181 18.7503 635.181 18.7503 634.439 19.3152C633.697 19.8447 633.522 19.8447 632.256 19.2092C630.772 18.4679 629.55 18.3619 629.157 18.8915ZM623.265 19.068C622.916 19.1386 622.523 19.2092 622.392 19.2446C622.261 19.2799 621.999 19.3152 621.825 19.2799C621.607 19.2446 621.563 19.3858 621.694 19.5623C621.912 19.8447 608.644 26.129 537.151 59.5272L511.967 71.2837V124.17C511.967 153.261 512.098 177.057 512.229 177.057C512.36 177.057 537.893 165.194 568.969 150.684L625.447 124.311V71.3896C625.447 21.1157 625.404 18.4679 624.662 18.715C624.269 18.8562 623.614 18.9974 623.265 19.068ZM1102.24 19.3152C1102.06 19.5623 1102.11 19.5976 1102.41 19.4564C1102.72 19.3152 1102.94 19.4564 1102.94 19.8094C1102.94 20.1625 1103.07 20.339 1103.2 20.1978C1103.5 19.986 1103.11 18.8915 1102.76 18.8915C1102.63 18.8915 1102.41 19.068 1102.24 19.3152ZM620.341 19.4211C620.341 19.7035 620.515 19.8447 620.734 19.7388C620.952 19.6329 620.996 19.3858 620.865 19.2092C620.472 18.7503 620.341 18.8209 620.341 19.4211ZM1113.85 19.7388C1113.85 19.8094 1114.2 20.0919 1114.59 20.339C1115.29 20.798 1115.33 20.7627 1114.76 20.1978C1114.2 19.6329 1113.85 19.4564 1113.85 19.7388ZM1111.23 20.6567C1111.23 20.8333 1111.45 21.0098 1111.71 21.0098C1111.93 21.0098 1112.01 20.8333 1111.88 20.6567C1111.75 20.4449 1111.53 20.3037 1111.4 20.3037C1111.32 20.3037 1111.23 20.4449 1111.23 20.6567ZM618.246 21.0098C618.115 21.2216 618.289 21.2569 618.639 21.151C619.424 20.9039 619.555 20.6567 618.944 20.6567C618.682 20.6567 618.377 20.798 618.246 21.0098ZM611.306 21.0451C611.175 21.151 611.524 21.2216 612.135 21.2216C612.703 21.2216 613.096 21.1157 612.965 20.9745C612.79 20.692 611.655 20.7627 611.306 21.0451ZM1114.98 21.9983C1114.85 22.1748 1115.03 22.3161 1115.38 22.3161C1115.72 22.3161 1115.9 22.1748 1115.77 21.9983C1115.64 21.8571 1115.46 21.7159 1115.38 21.7159C1115.29 21.7159 1115.11 21.8571 1114.98 21.9983ZM615.191 22.0689C615.322 22.2455 615.714 22.422 615.976 22.422C616.282 22.422 616.238 22.2808 615.845 22.0689C615.016 21.6453 614.841 21.6453 615.191 22.0689ZM608.818 22.5279C609.08 22.8103 609.124 23.1634 608.949 23.3046C608.775 23.4811 608.906 23.4811 609.211 23.3399C609.648 23.1281 609.648 22.9515 609.255 22.5632C608.993 22.2808 608.644 22.0689 608.556 22.0689C608.425 22.0689 608.556 22.2808 608.818 22.5279ZM1121.4 22.9515C1121.4 23.234 1121.57 23.3752 1121.79 23.2693C1122.01 23.1634 1122.05 22.9162 1121.92 22.7397C1121.53 22.2808 1121.4 22.3514 1121.4 22.9515ZM606.461 23.7989C606.33 23.9754 606.461 24.2578 606.723 24.399C607.072 24.5756 607.116 24.505 606.898 24.1872C606.636 23.8342 606.723 23.7636 607.291 23.9401C607.727 24.0813 607.945 24.046 607.771 23.8342C607.422 23.3752 606.811 23.3752 606.461 23.7989ZM1256.53 51.619C1255.96 52.1838 1256 52.2191 1256.66 51.7602C1257.4 51.3012 1257.62 51.0188 1257.27 51.0188C1257.18 51.0188 1256.83 51.3012 1256.53 51.619ZM1258.19 51.9014C1258.32 52.2191 1258.53 52.3957 1258.62 52.2897C1258.75 52.1838 1258.71 51.972 1258.53 51.7602C1258.14 51.1953 1257.88 51.3012 1258.19 51.9014ZM1281.67 154.285C1250.68 168.76 1225.32 180.728 1225.28 180.869C1225.23 181.011 1250.64 192.979 1281.71 207.454L1338.19 233.826L1391.57 208.937C1420.9 195.238 1446.34 183.411 1448.05 182.599C1449.79 181.787 1451.19 180.975 1451.1 180.834C1451.01 180.552 1338.71 127.983 1338.19 127.983C1338.06 127.983 1312.61 139.81 1281.67 154.285ZM1044.54 154.462C1013.55 168.936 988.365 180.869 988.496 181.011C989.107 181.47 1100.97 233.615 1101.41 233.615C1101.85 233.615 1213.71 181.47 1214.32 181.011C1214.67 180.728 1102.11 127.983 1101.37 128.089C1101.06 128.124 1075.53 139.987 1044.54 154.462ZM808.019 154.356C764.068 174.903 751.716 180.834 752.109 181.152C753.025 181.823 864.061 233.544 864.628 233.544C865.196 233.544 976.232 181.823 977.148 181.152C977.541 180.834 965.189 174.903 921.281 154.356C890.249 139.845 864.759 127.983 864.672 127.983C864.585 127.983 839.095 139.845 808.019 154.356ZM570.977 154.462C539.988 168.936 514.761 180.869 514.935 181.011C515.546 181.47 627.412 233.65 627.848 233.615C628.284 233.615 740.15 181.47 740.761 181.011C741.066 180.728 628.503 128.018 627.761 128.089C627.499 128.124 601.922 139.987 570.977 154.462ZM334.502 154.25C303.557 168.725 278.199 180.658 278.155 180.834C278.024 181.187 390.675 233.756 391.286 233.615C392.202 233.368 504.067 181.117 504.111 180.905C504.111 180.799 498.35 178.01 491.323 174.726C484.339 171.478 458.937 159.616 434.932 148.389C410.927 137.162 391.198 127.983 391.024 127.983C390.893 127.983 365.447 139.81 334.502 154.25ZM1517.97 150.472C1517.44 151.037 1517.44 151.072 1518.06 150.684C1518.45 150.437 1518.93 150.366 1519.1 150.507C1519.32 150.649 1519.32 150.543 1519.15 150.296C1518.75 149.731 1518.67 149.766 1517.97 150.472ZM208.452 150.507C208.321 150.684 208.496 150.825 208.845 150.825C209.194 150.825 209.5 150.684 209.5 150.507C209.5 150.366 209.325 150.225 209.107 150.225C208.845 150.225 208.583 150.366 208.452 150.507ZM1520.19 151.849C1520.19 152.131 1521.02 152.308 1521.24 152.061C1521.37 151.884 1521.2 151.743 1520.85 151.743C1520.5 151.743 1520.19 151.814 1520.19 151.849ZM1517.71 152.167C1517.53 152.308 1517.57 152.343 1517.88 152.237C1518.14 152.096 1518.45 152.167 1518.54 152.414C1518.67 152.696 1518.8 152.626 1518.97 152.273C1519.28 151.672 1518.32 151.602 1517.71 152.167ZM1459.09 237.392V290.279L1515.04 316.439C1545.86 330.808 1571.39 342.706 1571.78 342.812C1572.53 343.059 1572.57 340.411 1572.57 290.173V237.251L1516.13 210.878C1485.15 196.404 1459.61 184.506 1459.39 184.506C1459.22 184.471 1459.09 208.266 1459.09 237.392ZM1397.11 210.949L1340.81 237.251V290.137C1340.81 320.923 1340.98 342.989 1341.2 342.918C1341.42 342.847 1366.95 330.985 1397.94 316.51L1454.29 290.208V237.322C1454.29 202.547 1454.16 184.435 1453.85 184.541C1453.63 184.576 1428.1 196.474 1397.11 210.949ZM1222.4 237.745L1222.75 290.455L1279.01 316.722C1309.91 331.162 1335.31 342.989 1335.4 342.989C1335.48 342.989 1335.57 319.193 1335.57 290.102V237.251L1279.14 210.914C1248.15 196.404 1222.61 184.647 1222.4 184.788C1222.22 184.929 1222.22 208.76 1222.4 237.745ZM1159.46 211.408L1104.03 237.322L1103.9 290.137C1103.85 319.229 1103.94 342.989 1104.07 342.989C1104.2 342.989 1129.74 331.126 1160.81 316.616L1217.29 290.243V237.357V184.435L1216.07 184.965C1215.41 185.247 1189.92 197.145 1159.46 211.408ZM985.528 237.357V290.243L1042.01 316.616C1073.08 331.126 1098.62 342.989 1098.75 342.989C1098.92 342.989 1098.96 319.193 1098.92 290.137L1098.79 237.322L1042.27 210.878C1011.19 196.368 985.703 184.471 985.616 184.471C985.572 184.471 985.528 208.266 985.528 237.357ZM913.818 215.539L867.291 237.251L867.247 290.137V343.059L869.953 341.824C871.481 341.117 896.839 329.29 926.388 315.486L980.072 290.42L980.203 237.463L980.291 184.506L970.296 189.166C964.84 191.743 939.394 203.606 913.818 215.539ZM748.835 237.745L749.184 290.42L802.869 315.486C832.374 329.29 857.776 341.117 859.26 341.824L862.01 343.059V290.137L861.966 237.251L805.575 210.914C774.543 196.439 749.01 184.682 748.835 184.824C748.661 184.965 748.661 208.76 748.835 237.745ZM685.897 211.408L630.467 237.322L630.336 290.137C630.292 319.229 630.336 342.989 630.51 342.989C630.641 342.989 656.174 331.126 687.25 316.616L743.729 290.208V237.322V184.435L742.506 184.965C741.852 185.247 716.362 197.145 685.897 211.408ZM512.491 290.491C513.931 291.232 624.444 342.741 624.924 342.883C625.36 343.024 625.447 332.433 625.36 290.208L625.229 237.322L568.707 210.914L512.186 184.506L512.055 237.357C511.967 279.758 512.055 290.279 512.491 290.491ZM449.641 211.126L393.686 237.251V290.102C393.686 319.193 393.774 342.989 393.861 342.989C393.948 342.989 419.35 331.162 450.252 316.722L506.512 290.455L506.861 237.922C507.035 209.007 507.079 185.141 506.948 184.894C506.817 184.612 506.512 184.541 506.162 184.718C505.813 184.859 480.368 196.757 449.641 211.126ZM274.969 237.322V290.208L331.316 316.51C362.305 330.985 387.838 342.847 388.056 342.918C388.274 342.989 388.449 321.1 388.449 290.137V237.251L332.014 210.878C301.026 196.368 275.493 184.506 275.274 184.471C275.1 184.471 274.969 208.266 274.969 237.322ZM213.078 210.949L156.688 237.251V290.173C156.688 340.058 156.731 343.059 157.43 342.847C157.866 342.706 183.399 330.844 214.17 316.439L270.168 290.279V237.357C270.168 208.019 269.993 184.471 269.775 184.541C269.6 184.576 244.067 196.474 213.078 210.949ZM112.387 215.186C112.256 215.362 112.343 215.539 112.561 215.539C112.823 215.539 113.041 215.362 113.041 215.186C113.041 214.974 112.954 214.833 112.867 214.833C112.736 214.833 112.518 214.974 112.387 215.186ZM110.859 217.763C110.859 218.045 111.034 218.01 111.383 217.728C111.776 217.41 112.038 217.41 112.561 217.763C113.172 218.116 113.172 218.116 112.692 217.586C112.081 216.986 110.859 217.092 110.859 217.763ZM32.9508 291.761C32.8199 291.938 32.8635 292.185 33.0817 292.291C33.3 292.397 33.4745 292.256 33.4745 291.973C33.4745 291.373 33.3436 291.303 32.9508 291.761ZM1694.12 293.28C1693.64 293.668 1695.04 294.233 1695.65 293.915C1696.13 293.668 1696.18 293.562 1695.74 293.562C1695.43 293.562 1695.26 293.421 1695.39 293.244C1695.65 292.891 1694.56 292.927 1694.12 293.28ZM1697.66 293.491C1697.53 293.668 1697.7 293.809 1698.05 293.809C1698.4 293.809 1698.58 293.668 1698.44 293.491C1698.31 293.35 1698.14 293.209 1698.05 293.209C1697.96 293.209 1697.79 293.35 1697.66 293.491ZM30.8121 293.491C30.6812 293.668 30.8558 293.809 31.2049 293.809C31.5541 293.809 31.7287 293.668 31.5978 293.491C31.4668 293.35 31.2922 293.209 31.2049 293.209C31.1177 293.209 30.9431 293.35 30.8121 293.491ZM1696.52 294.021C1696.52 294.092 1696.87 294.409 1697.31 294.727C1697.96 295.221 1698.14 295.257 1698.14 294.798C1698.14 294.515 1697.96 294.374 1697.79 294.48C1697.62 294.551 1697.35 294.48 1697.18 294.268C1696.92 293.915 1696.52 293.774 1696.52 294.021ZM1399.77 320.394C1368.83 334.869 1343.6 346.802 1343.78 346.943C1344.39 347.437 1456.25 399.582 1456.69 399.582C1457.13 399.547 1569.08 347.366 1569.6 346.943C1569.91 346.66 1456.91 293.844 1456.38 293.986C1456.21 294.056 1430.76 305.919 1399.77 320.394ZM1163.3 320.288C1132.27 334.798 1106.86 346.766 1106.86 346.872C1106.91 347.155 1219.25 399.476 1219.82 399.476C1220.3 399.476 1331.95 347.472 1332.56 346.943C1332.82 346.766 1220.91 294.092 1219.95 293.95C1219.86 293.915 1194.38 305.777 1163.3 320.288ZM926.257 320.394C895.312 334.869 870.084 346.802 870.215 346.943C870.39 347.049 895.748 358.946 926.606 373.351C973.656 395.345 982.866 399.476 983.695 399.229C985.048 398.841 1095.91 347.084 1095.95 346.872C1095.95 346.59 983.215 293.915 982.866 294.021C982.735 294.056 957.246 305.919 926.257 320.394ZM689.782 320.288C658.706 334.798 633.304 346.731 633.304 346.872C633.347 347.084 744.209 398.841 745.562 399.229C746.391 399.476 755.6 395.345 802.651 373.351C833.509 358.946 858.867 347.049 858.998 346.943C859.216 346.766 747.395 294.162 746.391 293.95C746.304 293.915 720.814 305.777 689.782 320.288ZM452.696 320.394C421.707 334.869 396.48 346.802 396.654 346.943C396.829 347.084 422.231 358.982 453.045 373.386C500.707 395.628 509.261 399.511 510.134 399.264C511.487 398.841 622.349 347.084 622.392 346.872C622.392 346.59 509.654 293.915 509.261 294.021C509.13 294.056 483.641 305.919 452.696 320.394ZM215.523 320.5C184.665 334.904 159.525 346.802 159.656 346.943C160.179 347.366 272.132 399.547 272.568 399.582C273.005 399.582 384.87 347.437 385.481 346.943C385.917 346.59 273.136 293.915 272.35 294.127C272.001 294.233 246.424 306.095 215.523 320.5ZM31.3359 294.445C31.2486 294.339 31.1177 294.515 31.1177 294.798C31.1177 295.468 31.1177 295.468 32.1215 294.551C32.6453 294.056 32.6889 293.915 32.2525 294.198C31.8596 294.409 31.4668 294.551 31.3359 294.445ZM1700.02 295.115C1700.02 295.186 1700.37 295.468 1700.76 295.716C1701.46 296.175 1701.5 296.139 1700.93 295.574C1700.37 295.01 1700.02 294.833 1700.02 295.115ZM28.3243 295.574C27.7569 296.139 27.8005 296.175 28.4552 295.716C28.8917 295.468 29.2409 295.186 29.2409 295.115C29.2409 294.833 28.8917 295.01 28.3243 295.574ZM1577.37 403.289V456.175L1633.37 482.372C1664.18 496.776 1689.72 508.638 1690.11 508.779C1690.81 508.991 1690.85 505.32 1690.85 456.105V403.183L1634.42 376.811C1603.43 362.336 1577.89 350.438 1577.68 350.438C1577.5 350.403 1577.37 374.198 1577.37 403.289ZM1515.79 376.811L1459.31 403.183L1459.18 456.07C1459.13 485.125 1459.22 508.921 1459.35 508.921C1459.48 508.921 1485.01 497.058 1516.09 482.548L1572.57 456.211V403.289C1572.57 374.198 1572.48 350.403 1572.39 350.403C1572.35 350.403 1546.86 362.265 1515.79 376.811ZM1340.81 403.324V456.246L1396.76 482.372C1427.58 496.776 1453.11 508.638 1453.55 508.779C1454.24 508.991 1454.29 506.379 1454.2 456.14L1454.07 403.289L1397.55 376.846C1366.47 362.336 1340.98 350.438 1340.9 350.438C1340.85 350.403 1340.81 374.198 1340.81 403.324ZM1277.22 377.658L1222.53 403.183V456.07C1222.53 485.161 1222.66 508.885 1222.83 508.815C1223.05 508.744 1248.45 496.882 1279.35 482.442L1335.57 456.246V403.289V350.367L1333.74 351.25C1332.73 351.744 1307.29 363.607 1277.22 377.658ZM867.247 403.289V456.175L921.237 481.418C950.917 495.293 976.363 507.155 977.759 507.791L980.291 508.956V456.07L980.247 403.183L923.856 376.811C892.824 362.336 867.422 350.438 867.334 350.438C867.291 350.403 867.247 374.198 867.247 403.289ZM797.064 380.765L749.01 403.183L748.966 456.07V508.956L751.498 507.791C752.894 507.155 778.34 495.293 808.019 481.418L862.01 456.175V403.324V350.438L853.542 354.392C848.916 356.581 823.47 368.443 797.064 380.765ZM393.686 403.324V456.246L449.859 482.442C480.804 496.882 506.206 508.744 506.381 508.815C506.599 508.885 506.73 485.161 506.73 456.07V403.183L450.295 376.811C419.307 362.3 393.861 350.438 393.774 350.438C393.73 350.403 393.686 374.233 393.686 403.324ZM329.963 377.693L275.187 403.289L275.056 456.14C274.969 506.379 275.012 508.991 275.711 508.779C276.147 508.638 301.68 496.776 332.451 482.372L388.449 456.246V403.289V350.367L386.572 351.25C385.568 351.744 360.079 363.642 329.963 377.693ZM156.688 403.289V456.211L213.166 482.548C244.242 497.058 269.775 508.921 269.906 508.921C270.037 508.921 270.124 485.125 270.08 456.07L269.949 403.183L213.646 376.846C182.657 362.336 157.211 350.473 156.993 350.438C156.819 350.403 156.688 374.198 156.688 403.289ZM94.7538 376.881L38.4066 403.183V456.105C38.4066 504.967 38.4502 508.991 39.1049 508.779C39.4977 508.638 65.0307 496.776 95.8449 482.372L151.887 456.175V403.254C151.887 372.786 151.712 350.403 151.494 350.473C151.276 350.509 125.743 362.406 94.7538 376.881ZM1103.81 403.36V455.964L1105.42 456.811C1107.65 457.941 1216.81 508.921 1217.07 508.921C1217.2 508.921 1217.25 485.125 1217.2 456.07L1217.07 403.218L1160.99 377.022C1130.13 362.583 1104.64 350.791 1104.33 350.791C1103.94 350.756 1103.81 361.488 1103.81 403.36ZM1041.61 377.128L985.746 403.254L985.616 456.105C985.572 485.161 985.616 508.921 985.703 508.921C985.965 508.921 1095.3 457.87 1097.35 456.811L1099.01 455.964V403.324C1099.01 353.333 1098.96 350.685 1098.22 350.862C1097.83 350.932 1072.34 362.759 1041.61 377.128ZM630.249 403.36V455.964L631.863 456.811C633.958 457.87 743.292 508.921 743.554 508.921C743.641 508.921 743.685 485.161 743.641 456.105L743.51 403.254L687.425 377.022C656.567 362.583 631.078 350.791 630.772 350.791C630.379 350.756 630.249 361.488 630.249 403.36ZM568.271 377.022L512.186 403.218L512.055 456.07C512.011 485.125 512.055 508.921 512.186 508.921C512.448 508.921 621.607 457.976 623.789 456.811L625.447 455.964V403.36C625.447 361.488 625.316 350.756 624.88 350.791C624.618 350.791 599.129 362.583 568.271 377.022ZM-18.1152 375.822C-17.9843 375.999 -18.0716 376.175 -18.3771 376.175C-18.6826 376.175 -18.8136 376.281 -18.639 376.387C-18.2462 376.705 -17.4169 376.175 -17.6788 375.787C-17.8533 375.61 -18.0279 375.469 -18.1589 375.469C-18.2898 375.469 -18.2462 375.61 -18.1152 375.822ZM1518.32 486.29C1487.42 500.695 1462.14 512.628 1462.14 512.769C1462.14 512.981 1573.88 565.338 1574.75 565.479C1575.19 565.585 1688.19 513.122 1688.23 512.804C1688.23 512.522 1575.45 459.882 1574.93 459.953C1574.66 459.988 1549.17 471.851 1518.32 486.29ZM1281.49 486.326C1239.37 505.99 1225.32 512.734 1225.71 513.016C1226.02 513.228 1251.33 525.126 1282.06 539.459C1330.51 562.09 1338.01 565.479 1338.93 565.196C1340.28 564.773 1451.19 513.016 1451.23 512.804C1451.23 512.557 1338.49 459.882 1338.1 459.953C1337.93 459.988 1312.48 471.851 1281.49 486.326ZM1043.66 486.855C1013.37 501.012 988.583 512.663 988.583 512.769C988.627 513.051 1100.1 565.09 1101.1 565.267C1101.54 565.373 1120.79 556.582 1149.2 543.343C1175.26 531.163 1200.53 519.371 1205.37 517.111C1210.26 514.817 1214.19 512.875 1214.1 512.698C1214.06 512.557 1188.66 500.624 1157.71 486.149L1101.41 459.882L1100.1 460.483C1099.4 460.836 1074 472.698 1043.66 486.855ZM807.976 486.326C766.381 505.743 751.759 512.734 752.152 513.016C753.68 514.11 864.41 565.443 865.021 565.302C865.807 565.126 976.799 513.298 977.323 512.875C977.585 512.628 865.152 459.847 864.585 459.988C864.454 459.988 838.964 471.851 807.976 486.326ZM570.104 486.82C539.814 500.977 515.023 512.663 515.023 512.769C515.023 513.157 626.975 565.232 627.848 565.232C628.677 565.232 740.63 513.193 740.673 512.769C740.673 512.663 715.271 500.73 684.239 486.22L627.848 459.882L626.539 460.483C625.797 460.836 600.438 472.698 570.104 486.82ZM334.546 486.22C303.47 500.73 278.024 512.698 278.024 512.804C278.068 513.087 390.413 565.408 391.068 565.408C391.635 565.408 502.583 513.722 503.544 513.016C503.937 512.734 489.752 505.955 447.677 486.255C416.644 471.745 391.242 459.882 391.155 459.882C391.111 459.847 365.622 471.71 334.546 486.22ZM97.3725 486.326C66.3838 500.801 41.0253 512.698 41.0253 512.804C41.069 513.122 154.069 565.585 154.505 565.479C155.64 565.267 267.112 512.945 266.982 512.698C266.807 512.275 154.811 459.882 154.243 459.953C153.938 459.988 128.361 471.851 97.3725 486.326ZM1771.46 476.193C1771.33 476.476 1771.51 476.687 1771.81 476.687C1772.12 476.687 1772.29 476.476 1772.16 476.193C1772.03 475.946 1771.9 475.734 1771.81 475.734C1771.73 475.734 1771.6 475.946 1771.46 476.193ZM1768.5 477.252C1768.85 477.535 1769.11 477.499 1769.5 477.182C1769.98 476.829 1769.89 476.793 1769.24 477.005C1768.58 477.217 1768.5 477.146 1768.76 476.793C1769.02 476.476 1768.93 476.405 1768.58 476.617C1768.19 476.793 1768.15 476.97 1768.5 477.252ZM-41.9024 478.029C-41.5968 478.347 -41.2477 478.488 -41.1167 478.382C-40.9858 478.276 -40.593 478.417 -40.2002 478.665C-39.5891 479.053 -39.5891 479.018 -40.1129 478.488C-40.4184 478.135 -40.8549 477.923 -41.0294 478.029C-41.2477 478.135 -41.5096 478.064 -41.6841 477.853C-41.8151 477.676 -42.077 477.499 -42.2079 477.499C-42.3388 477.499 -42.2079 477.747 -41.9024 478.029ZM1632.58 543.449L1577.59 569.15L1577.46 622.002C1577.41 653.14 1577.54 674.853 1577.76 674.853C1577.98 674.853 1603.47 663.061 1634.37 648.621L1690.63 622.39L1690.76 569.362L1690.85 516.335L1689.24 517.005C1688.32 517.394 1662.83 529.291 1632.58 543.449ZM1459.09 569.256V622.143L1491.04 637.112C1508.63 645.303 1533.99 657.165 1547.43 663.449C1560.83 669.734 1571.96 674.853 1572.18 674.853C1572.39 674.853 1572.53 652.364 1572.48 622.002L1572.35 569.15L1515.83 542.743C1484.75 528.232 1459.26 516.335 1459.18 516.335C1459.13 516.335 1459.09 540.13 1459.09 569.256ZM1371.71 554.746L1340.85 569.115L1340.81 621.966C1340.81 651.057 1340.9 674.853 1341.03 674.853C1341.42 674.853 1452.72 622.849 1453.5 622.319C1454.24 621.825 1454.29 618.859 1454.29 569.292C1454.29 540.412 1454.2 516.723 1454.07 516.617C1453.9 516.511 1442.29 521.807 1428.19 528.374C1414.09 534.976 1388.69 546.838 1371.71 554.746ZM1158.8 543.66L1104.03 569.221L1103.9 622.037C1103.85 651.093 1103.94 674.853 1104.11 674.853C1104.25 674.853 1129.78 662.99 1160.85 648.48L1217.29 622.143V569.221V516.299L1215.41 517.182C1214.41 517.676 1188.92 529.574 1158.8 543.66ZM511.967 569.221V622.143L568.402 648.48C599.478 662.99 625.011 674.853 625.142 674.853C625.316 674.853 625.404 651.093 625.36 622.037L625.229 569.221L568.707 542.813C537.631 528.268 512.142 516.37 512.055 516.37C512.011 516.335 511.967 540.13 511.967 569.221ZM274.969 569.256C274.969 618.859 275.012 621.825 275.711 622.319C276.54 622.849 387.838 674.853 388.231 674.853C388.361 674.853 388.449 651.057 388.449 621.966L388.405 569.115L332.014 542.778C300.982 528.303 275.493 516.511 275.274 516.582C275.1 516.652 274.969 540.377 274.969 569.256ZM212.337 543.237L156.906 569.15L156.775 622.037C156.688 665.744 156.775 674.888 157.255 674.782C157.561 674.712 183.094 662.849 213.995 648.41L270.168 622.143V569.221V516.299L268.946 516.829C268.291 517.111 242.802 529.009 212.337 543.237ZM38.7557 622.319C39.3231 622.778 151.057 674.853 151.494 674.853C151.712 674.853 151.843 653.176 151.799 622.002L151.668 569.15L95.1466 542.743L38.6248 516.335L38.4939 569.186C38.4502 598.242 38.5812 622.178 38.7557 622.319ZM1222.61 569.504L1222.75 622.319L1278.61 648.445C1309.34 662.814 1334.74 674.641 1335 674.747C1335.44 674.888 1335.57 664.226 1335.57 622.037L1335.53 569.115L1279.35 542.919C1248.45 528.515 1223.05 516.688 1222.83 516.688C1222.66 516.688 1222.57 540.448 1222.61 569.504ZM985.528 569.398V622.108L1042.01 648.48C1073.04 662.99 1098.57 674.853 1098.75 674.853C1098.88 674.853 1098.96 651.093 1098.92 622.037L1098.79 569.221L1042.7 542.99C1011.85 528.585 986.358 516.758 986.052 516.723C985.659 516.688 985.528 527.456 985.528 569.398ZM923.551 542.919L867.465 569.15L867.334 622.002C867.291 651.057 867.334 674.853 867.422 674.853C867.509 674.853 892.867 663.026 923.813 648.586L980.072 622.319L980.203 569.504C980.247 540.448 980.16 516.688 979.985 516.688C979.767 516.723 954.409 528.515 923.551 542.919ZM749.053 569.504L749.184 622.319L805.444 648.586C836.389 663.026 861.748 674.853 861.835 674.853C861.922 674.853 861.966 651.057 861.922 622.002L861.791 569.15L805.706 542.919C774.848 528.515 749.49 516.723 749.272 516.688C749.097 516.688 749.01 540.448 749.053 569.504ZM686.727 542.954L630.467 569.221L630.336 622.037C630.292 651.093 630.379 674.853 630.51 674.853C630.685 674.853 656.218 662.99 687.25 648.48L743.729 622.108V569.398C743.729 540.412 743.554 516.688 743.379 516.688C743.161 516.688 717.672 528.515 686.727 542.954ZM449.946 542.884L393.73 569.115L393.686 622.037C393.686 664.226 393.817 674.888 394.21 674.747C394.516 674.641 419.918 662.814 450.645 648.445L506.512 622.319L506.643 569.504C506.686 540.448 506.599 516.688 506.468 516.688C506.293 516.688 480.848 528.479 449.946 542.884ZM1763.04 544.296C1762.87 544.543 1762.91 544.578 1763.26 544.437C1763.91 544.084 1765.18 545.143 1764.79 545.708C1764.57 546.061 1764.61 546.061 1765.05 545.743C1765.53 545.39 1765.49 545.179 1764.83 544.578C1763.91 543.766 1763.48 543.696 1763.04 544.296ZM-35.3991 544.826C-35.9665 545.39 -35.9228 545.426 -35.2682 544.967C-34.8317 544.72 -34.4825 544.437 -34.4825 544.367C-34.4825 544.084 -34.8317 544.261 -35.3991 544.826ZM-37.014 547.226C-37.014 547.721 -36.8394 548.109 -36.6648 548.109C-36.4466 548.109 -36.3593 547.826 -36.4466 547.473C-36.5339 547.156 -36.6212 546.767 -36.6212 546.591C-36.7085 545.955 -37.014 546.45 -37.014 547.226ZM-38.1924 546.661C-38.3234 546.838 -38.2797 547.085 -38.0615 547.191C-37.8433 547.297 -37.6687 547.156 -37.6687 546.873C-37.6687 546.273 -37.7996 546.202 -38.1924 546.661ZM1399.82 652.258C1357.92 671.817 1343.6 678.666 1343.99 678.948C1344.87 679.619 1456.12 731.446 1456.64 731.446C1457.13 731.446 1568.99 679.301 1569.56 678.807C1569.86 678.56 1456.91 625.709 1456.43 625.885C1456.25 625.92 1430.81 637.783 1399.82 652.258ZM1163.34 652.152C1132.27 666.662 1106.86 678.63 1106.86 678.736C1106.91 679.089 1219.6 731.517 1220.08 731.411C1220.82 731.199 1331.82 679.372 1332.38 678.948C1332.78 678.666 1318.72 671.922 1276.52 652.187C1245.48 637.712 1220.08 625.815 1220 625.815C1219.91 625.779 1194.42 637.642 1163.34 652.152ZM924.074 653.317C894.308 667.192 870.084 678.666 870.259 678.807C870.564 679.089 982.211 731.27 982.779 731.411C983.215 731.517 1095.91 679.019 1095.95 678.736C1095.95 678.63 1070.55 666.662 1039.52 652.187L983.128 625.85L980.64 626.944C979.287 627.58 953.841 639.442 924.074 653.317ZM688.822 652.611C658.313 666.874 633.304 678.63 633.304 678.736C633.347 679.054 746.042 731.517 746.478 731.411C747.046 731.27 858.693 679.089 858.998 678.807C859.173 678.666 833.858 666.697 802.738 652.187C751.41 628.251 746.085 625.85 745.256 626.238C744.776 626.485 719.374 638.383 688.822 652.611ZM452.696 652.258C410.49 671.958 396.48 678.666 396.872 678.948C397.44 679.372 508.432 731.199 509.174 731.411C509.654 731.517 622.349 679.089 622.392 678.736C622.392 678.489 509.654 625.779 509.305 625.885C509.174 625.92 483.685 637.783 452.696 652.258ZM215.61 652.364C184.665 666.768 159.525 678.666 159.699 678.807C160.267 679.301 272.132 731.446 272.612 731.446C273.136 731.446 384.39 679.619 385.263 678.948C385.655 678.666 371.339 671.817 329.396 652.187C298.363 637.712 272.743 625.92 272.394 625.991C272.088 626.062 246.511 637.924 215.61 652.364ZM4.18798 636.653C4.05704 636.83 4.23162 636.971 4.58079 636.971C4.92996 636.971 5.10455 636.83 4.97361 636.653C4.84267 636.512 4.66808 636.371 4.58079 636.371C4.4935 636.371 4.31891 636.512 4.18798 636.653ZM1722.89 637.995C1722.84 638.312 1722.89 638.454 1723.06 638.348C1723.19 638.206 1723.37 637.853 1723.41 637.571C1723.45 637.253 1723.41 637.112 1723.24 637.218C1723.1 637.359 1722.93 637.712 1722.89 637.995ZM5.89018 637.748C5.75924 637.924 5.80288 638.171 6.02111 638.277C6.23935 638.383 6.41393 638.242 6.41393 637.959C6.41393 637.359 6.28299 637.289 5.89018 637.748ZM1515.48 708.745L1459.13 735.047L1459.09 788.11C1459.09 817.307 1459.22 841.103 1459.39 841.032C1459.61 840.926 1474.37 834.042 1492.26 825.71C1510.16 817.342 1529.75 808.199 1535.86 805.339C1541.93 802.515 1547.04 800.255 1547.21 800.326C1547.39 800.432 1548.17 800.008 1548.96 799.443C1549.79 798.878 1550.62 798.419 1550.79 798.419C1551.01 798.419 1551.27 798.419 1551.4 798.419C1551.53 798.419 1552.01 798.101 1552.49 797.713C1552.97 797.325 1553.67 797.007 1554.02 797.007C1554.37 797.007 1554.67 796.83 1554.67 796.619C1554.67 796.336 1554.89 796.372 1555.33 796.654C1555.9 797.042 1555.94 797.007 1555.77 796.583C1555.55 796.124 1557.25 795.136 1558.38 795.065C1558.6 795.065 1559.21 794.747 1559.78 794.324C1560.3 793.935 1561.83 793.159 1563.19 792.629C1564.49 792.064 1565.72 791.499 1565.85 791.323C1565.93 791.182 1566.33 791.111 1566.68 791.217C1567.07 791.358 1567.46 791.182 1567.59 790.829C1567.77 790.511 1568.16 790.334 1568.47 790.44C1568.77 790.546 1569.16 790.44 1569.34 790.228C1569.51 789.981 1569.47 789.946 1569.16 790.087C1568.86 790.228 1568.64 790.228 1568.64 790.123C1568.64 790.017 1569.51 789.593 1570.56 789.205C1571.65 788.852 1572.57 788.251 1572.66 787.934C1572.96 786.557 1572.53 682.231 1572.18 682.337C1572 682.408 1546.47 694.27 1515.48 708.745ZM1341.11 788.216C1341.51 788.499 1342.86 789.169 1392.53 812.365C1411.95 821.473 1433.77 831.641 1440.93 835.03C1448.13 838.384 1454.07 841.138 1454.16 841.138C1454.2 841.138 1454.24 817.272 1454.2 788.146L1454.07 735.118L1397.55 708.745L1341.03 682.373L1340.9 735.153C1340.85 764.209 1340.94 788.075 1341.11 788.216ZM1277.26 709.522L1222.66 735.012L1222.4 745.286C1222.22 750.899 1222.09 774.73 1222.09 798.207C1222.09 838.667 1222.13 840.855 1222.83 840.679C1223.27 840.608 1248.76 828.781 1279.49 814.412L1335.35 788.287L1335.48 735.259L1335.57 682.231L1333.74 683.114C1332.69 683.608 1307.29 695.506 1277.26 709.522ZM867.553 788.216C868.207 788.71 979.942 840.785 980.334 840.785C980.771 840.785 980.334 735.118 979.898 734.941C979.767 734.871 954.409 723.044 923.551 708.639L867.465 682.408L867.334 735.188C867.291 764.209 867.378 788.075 867.553 788.216ZM797.108 712.629L749.097 735.012L748.835 743.167C748.355 756.018 748.486 840.785 748.922 840.785C749.141 840.785 774.63 828.958 805.575 814.518L861.791 788.251L861.922 735.259L862.01 682.302L853.542 686.256C848.916 688.445 823.514 700.307 797.108 712.629ZM393.992 788.216C394.559 788.675 505.595 840.502 506.381 840.679C507.123 840.855 507.166 838.667 507.166 798.525C507.166 775.224 507.035 751.393 506.861 745.603L506.599 735.012L450.252 708.71L393.905 682.373L393.774 735.188C393.73 764.209 393.817 788.075 393.992 788.216ZM331.054 709.028L275.187 735.118L275.056 788.146C275.012 817.342 275.143 841.138 275.318 841.067C275.536 841.032 288.717 834.854 304.692 827.369C320.623 819.92 345.937 808.057 360.952 801.032L388.231 788.287L388.361 735.259C388.449 684.809 388.405 682.267 387.707 682.584C387.27 682.796 361.781 694.694 331.054 709.028ZM1103.81 735.33V788.04L1159.85 814.236C1190.67 828.64 1216.2 840.538 1216.59 840.644C1217.25 840.855 1217.29 836.195 1217.2 787.969L1217.07 735.083L1160.99 708.851C1130.13 694.447 1104.64 682.655 1104.33 682.655C1103.94 682.62 1103.81 693.388 1103.81 735.33ZM1041.61 708.992L985.746 735.083L985.616 787.934C985.572 816.989 985.659 840.785 985.834 840.785C986.008 840.785 1011.54 828.922 1042.57 814.412L1099.01 788.04V735.294C1099.01 685.232 1098.96 682.549 1098.22 682.726C1097.83 682.796 1072.34 694.623 1041.61 708.992ZM630.249 735.33V788.075L686.683 814.412C717.759 828.922 743.292 840.785 743.423 840.785C743.598 840.785 743.685 816.989 743.641 787.934L743.51 735.083L732.381 729.893C726.27 727.033 700.999 715.241 676.295 703.697C651.548 692.117 631.078 682.655 630.772 682.655C630.379 682.62 630.249 693.388 630.249 735.33ZM568.271 708.851L512.186 735.083L512.055 787.969C511.967 836.795 512.011 840.855 512.666 840.644C513.059 840.502 538.592 828.64 569.406 814.236L625.447 788.04V735.33C625.447 693.388 625.316 682.62 624.88 682.655C624.618 682.655 599.129 694.447 568.271 708.851ZM1658.99 716.265C1658.99 716.336 1659.42 716.689 1659.95 717.077L1660.95 717.748L1660.12 716.936C1659.34 716.195 1658.99 715.983 1658.99 716.265ZM1661.17 717.713C1661.17 717.783 1661.48 717.96 1661.87 718.066C1662.22 718.172 1662.39 718.136 1662.26 717.924C1662 717.571 1661.17 717.43 1661.17 717.713ZM66.1219 718.278C66.2528 718.454 66.6456 718.631 66.9075 718.631C67.213 718.631 67.1694 718.489 66.7766 718.278C65.9473 717.854 65.7727 717.854 66.1219 718.278ZM1659.12 718.984C1659.21 719.372 1659.51 719.902 1659.86 720.149C1660.3 720.502 1660.34 720.466 1660.04 720.043C1659.64 719.513 1659.6 719.337 1659.47 718.631C1659.47 718.419 1659.34 718.278 1659.21 718.278C1659.08 718.278 1659.08 718.595 1659.12 718.984ZM69.6572 719.054C69.6136 719.301 69.439 719.76 69.2208 720.043C68.9152 720.466 68.9589 720.502 69.3953 720.149C69.7445 719.902 70.05 719.337 70.1373 718.913C70.2246 718.489 70.181 718.242 70.0064 718.348C69.8754 718.454 69.7445 718.772 69.6572 719.054ZM1299.56 809.717C1230.38 842.02 1225.15 844.457 1225.15 844.668C1225.15 844.774 1233.13 848.587 1242.91 853.141C1314.1 886.398 1334.04 895.825 1334.04 896.248C1334.04 896.531 1334.44 896.743 1334.92 896.743C1335.4 896.743 1336.27 896.99 1336.88 897.272C1338.1 897.837 1339.15 898.049 1338.84 897.661C1338.58 897.308 1341.68 896.072 1342.82 896.072C1343.47 896.072 1343.69 895.895 1343.51 895.542C1343.38 895.225 1343.47 895.119 1343.78 895.295C1344.08 895.436 1344.3 895.401 1344.3 895.225C1344.3 894.695 1347.31 893.389 1347.57 893.777C1347.75 893.954 1348.1 893.989 1348.36 893.848C1348.66 893.707 1349.01 893.565 1349.19 893.565C1349.32 893.565 1349.58 893.459 1349.76 893.318C1350.15 893 1349.06 893.142 1348.32 893.495C1348.05 893.671 1347.79 893.707 1347.79 893.565C1347.79 893.318 1351.76 891.271 1352.29 891.271C1352.46 891.271 1352.51 891.412 1352.37 891.624C1351.94 892.188 1352.42 892.012 1353.07 891.376C1353.6 890.882 1353.6 890.812 1353.03 891.059C1352.68 891.2 1352.77 891.059 1353.25 890.741C1353.73 890.423 1354.47 890.247 1354.91 890.353C1355.3 890.423 1355.56 890.388 1355.43 890.211C1355.12 889.788 1356.43 889.046 1357 889.364C1357.31 889.505 1357.39 889.47 1357.26 889.258C1357.09 889.082 1357.52 888.693 1358.18 888.411C1358.83 888.164 1359.88 887.634 1360.54 887.281C1361.19 886.928 1362.15 886.61 1362.59 886.575C1363.07 886.575 1363.37 886.434 1363.24 886.293C1363.15 886.151 1364.2 885.516 1365.56 884.916C1366.95 884.28 1375.72 880.22 1385.02 875.842C1394.32 871.5 1402.31 867.828 1402.7 867.722C1403.09 867.581 1403.53 867.369 1403.66 867.263C1403.79 867.122 1414.4 862.144 1427.23 856.142C1440.06 850.176 1450.8 845.092 1451.1 844.88C1451.49 844.598 1445.52 841.667 1427.53 833.3C1414.26 827.122 1388.82 815.26 1370.92 806.892C1353.03 798.56 1338.19 791.782 1337.97 791.853C1337.71 791.923 1320.43 799.973 1299.56 809.717ZM1042.36 819.249C1002.46 837.855 988.365 844.598 988.714 844.88C989.631 845.551 1100.84 897.378 1101.41 897.378C1101.98 897.378 1213.23 845.551 1214.1 844.88C1214.5 844.598 1200.49 837.925 1158.02 818.119L1101.45 791.711L1098.96 792.876C1097.57 793.477 1072.12 805.374 1042.36 819.249ZM807.888 818.19C776.943 832.629 751.585 844.562 751.585 844.668C751.585 844.774 777.031 856.707 808.107 871.217L864.628 897.625L921.15 871.217C952.226 856.707 977.672 844.774 977.672 844.668C977.672 844.421 864.934 791.747 864.541 791.817C864.367 791.853 838.877 803.715 807.888 818.19ZM569.886 818.719C528.335 838.102 514.761 844.598 515.154 844.88C516.026 845.551 627.281 897.378 627.848 897.378C628.415 897.378 739.626 845.551 740.542 844.88C740.892 844.598 726.052 837.501 684.501 818.119L627.935 791.747L626.539 792.347C625.753 792.665 600.264 804.527 569.886 818.719ZM338.649 816.072C310.235 829.346 284.833 841.173 282.258 842.409C277.588 844.562 277.5 844.633 278.548 845.127C279.464 845.622 287.539 849.399 319.793 864.439C325.38 867.052 329.788 869.311 329.657 869.488C329.526 869.699 329.614 869.735 329.876 869.593C330.138 869.488 337.776 872.841 346.854 877.078C355.932 881.315 364.182 885.163 365.185 885.622C366.233 886.081 367.062 886.61 367.062 886.752C367.062 886.928 366.888 886.999 366.669 886.893C366.451 886.787 366.058 886.928 365.796 887.175C364.967 887.952 365.971 888.164 366.844 887.387C367.63 886.681 368.633 886.752 368.11 887.458C367.935 887.669 368.022 887.74 368.284 887.634C368.808 887.352 371.863 888.623 373.26 889.647C373.827 890.07 374.526 890.423 374.918 890.423C375.966 890.494 381.073 893.036 380.811 893.389C380.68 893.53 380.942 893.636 381.334 893.601C382.12 893.495 384.957 894.695 384.957 895.119C384.957 895.684 384.346 895.825 383.691 895.401C383.08 895.013 383.08 895.048 383.604 895.613C384.041 896.037 384.346 896.143 384.695 895.86C385.263 895.401 386.834 895.401 386.485 895.86C386.31 896.072 386.005 896.107 385.743 896.001C385.437 895.86 385.394 895.931 385.568 896.178C385.786 896.425 386.136 896.46 386.572 896.284C387.27 895.966 391.286 897.414 392.202 898.296C392.595 898.685 392.726 898.72 393.032 898.331C393.25 898.049 393.206 897.943 392.944 898.084C392.682 898.226 392.333 898.084 392.202 897.802C392.028 897.414 392.377 897.096 393.163 896.813C393.817 896.602 394.428 896.319 394.559 896.178C394.734 896.001 428.603 880.114 486.958 852.859C496.386 848.446 504.111 844.774 504.111 844.668C504.111 844.315 391.286 791.747 390.806 791.853C390.544 791.923 367.106 802.832 338.649 816.072ZM1560.57 794.536C1560.13 794.924 1559.87 795.242 1560 795.242C1560.13 795.242 1560.57 794.924 1561 794.536C1561.44 794.147 1561.7 793.83 1561.57 793.83C1561.44 793.83 1561 794.147 1560.57 794.536ZM1558.17 795.771C1558.17 795.842 1558.43 796.054 1558.73 796.266C1559.17 796.548 1559.34 796.513 1559.34 796.195C1559.34 795.913 1559.08 795.701 1558.73 795.701C1558.43 795.701 1558.17 795.736 1558.17 795.771ZM1557.6 797.148C1557.34 797.678 1558.34 797.713 1558.91 797.184C1559.08 797.042 1559 797.007 1558.69 797.148C1558.43 797.289 1558.17 797.219 1558.17 797.042C1558.17 796.513 1557.86 796.548 1557.6 797.148ZM171.309 798.066C172.007 798.631 172.662 799.055 172.749 798.949C172.88 798.843 173.186 798.913 173.448 799.125C173.753 799.302 174.19 799.302 174.583 799.125C175.063 798.878 175.063 798.772 174.67 798.737C174.059 798.666 173.36 798.56 173.055 798.419C172.924 798.384 172.575 798.313 172.269 798.278C172.007 798.243 171.789 797.996 171.877 797.748C171.92 797.501 171.789 797.395 171.571 797.501C171.353 797.642 171.047 797.572 170.873 797.36C170.742 797.184 170.48 797.007 170.349 797.007C170.174 797.007 170.611 797.466 171.309 798.066ZM1554.72 799.161C1555.37 799.478 1556.11 799.231 1555.77 798.772C1555.63 798.596 1555.2 798.56 1554.85 798.666C1554.33 798.808 1554.28 798.949 1554.72 799.161ZM1553.15 800.537C1553.02 801.173 1553.06 801.244 1553.58 800.891C1553.93 800.679 1554.06 800.255 1553.93 799.973C1553.63 799.337 1553.41 799.514 1553.15 800.537ZM175.281 800.608C175.674 801.102 176.285 800.537 176.023 799.973C175.848 799.549 175.674 799.514 175.412 799.867C175.237 800.114 175.194 800.467 175.281 800.608ZM1550.92 800.255C1550.75 800.502 1550.75 800.608 1550.96 800.467C1551.14 800.326 1551.62 800.396 1552.01 800.643C1552.62 801.032 1552.62 800.996 1552.1 800.432C1551.4 799.725 1551.31 799.69 1550.92 800.255ZM176.939 800.643C176.765 800.749 177.114 800.785 177.638 800.714C178.947 800.502 179.384 800.149 178.162 800.29C177.638 800.361 177.114 800.502 176.939 800.643ZM1551.18 801.032C1551.18 801.102 1551.53 801.385 1551.92 801.632C1552.62 802.091 1552.67 802.056 1552.1 801.491C1551.53 800.926 1551.18 800.749 1551.18 801.032ZM178.816 802.056C179.034 802.338 179.165 802.303 179.296 802.02C179.384 801.773 179.689 801.703 179.907 801.808C180.213 801.95 180.257 801.879 180.082 801.667C179.907 801.455 179.515 801.349 179.165 801.455C178.816 801.597 178.642 801.844 178.816 802.056ZM1549.65 802.303C1549.79 802.479 1550.18 802.656 1550.44 802.656C1550.75 802.656 1550.7 802.515 1550.31 802.303C1549.48 801.879 1549.31 801.879 1549.65 802.303ZM186.062 803.256C186.236 803.362 186.105 803.715 185.8 804.033C185.32 804.527 185.363 804.527 186.018 804.103C186.716 803.68 186.716 803.009 186.062 803.009C185.887 803.009 185.931 803.115 186.062 803.256ZM1542.45 803.856C1542.45 803.927 1542.76 804.103 1543.15 804.209C1543.5 804.315 1543.68 804.28 1543.54 804.068C1543.28 803.715 1542.45 803.574 1542.45 803.856ZM1539.66 804.986C1539.53 805.268 1539.57 805.41 1539.83 805.304C1540.1 805.198 1540.27 804.951 1540.27 804.739C1540.27 804.244 1539.97 804.35 1539.66 804.986ZM1541.54 805.727C1540.79 806.433 1540.75 806.539 1541.41 806.08C1541.89 805.763 1542.41 805.551 1542.54 805.657C1542.63 805.763 1542.76 805.586 1542.76 805.304C1542.76 804.633 1542.8 804.598 1541.54 805.727ZM1540.53 805.339C1540.4 805.621 1540.45 805.763 1540.71 805.657C1540.97 805.551 1541.14 805.304 1541.14 805.092C1541.14 804.598 1540.84 804.703 1540.53 805.339ZM191.343 806.963C191.168 807.21 191.168 807.316 191.386 807.175C191.561 807.034 192.041 807.104 192.434 807.351C193.045 807.74 193.045 807.704 192.521 807.139C191.823 806.433 191.736 806.398 191.343 806.963ZM1536.12 808.269C1535.99 808.446 1536.04 808.693 1536.26 808.799C1536.47 808.905 1536.65 808.763 1536.65 808.481C1536.65 807.881 1536.52 807.81 1536.12 808.269ZM192.696 808.552C192.783 808.905 192.87 809.222 192.87 809.293C192.914 809.364 193.132 809.293 193.35 809.187C193.7 809.011 193.656 808.799 193.307 808.446C192.652 807.81 192.521 807.81 192.696 808.552ZM1533.59 808.905C1533.81 809.328 1533.72 809.399 1533.24 809.187C1532.76 808.975 1532.72 809.011 1533.16 809.364C1533.46 809.646 1533.99 809.893 1534.38 809.929C1534.9 809.999 1534.9 809.893 1534.29 809.152C1533.51 808.163 1533.2 808.057 1533.59 808.905ZM196.406 809.929C196.406 810.211 197.235 810.387 197.453 810.14C197.584 809.964 197.41 809.823 197.06 809.823C196.711 809.823 196.406 809.893 196.406 809.929ZM1526.48 813.318C1526.48 813.918 1526.57 813.918 1527 813.459C1527.26 813.141 1527.66 813.035 1527.83 813.177C1528.05 813.318 1528.05 813.247 1527.92 813.035C1527.48 812.4 1526.48 812.612 1526.48 813.318ZM267.112 846.575C267.112 846.645 267.462 846.928 267.854 847.175C268.553 847.634 268.596 847.599 268.029 847.034C267.462 846.469 267.112 846.292 267.112 846.575ZM265.323 847.387C264.756 847.952 264.799 847.987 265.454 847.528C265.89 847.281 266.24 846.998 266.24 846.928C266.24 846.645 265.89 846.822 265.323 847.387ZM264.494 849.47C264.494 849.752 265.323 849.929 265.541 849.682C265.672 849.505 265.498 849.364 265.148 849.364C264.799 849.364 264.494 849.434 264.494 849.47ZM1386.46 878.596C1386.59 878.773 1386.9 878.843 1387.12 878.702C1387.33 878.596 1387.42 878.349 1387.25 878.172C1387.12 877.996 1386.81 877.925 1386.59 878.067C1386.37 878.172 1386.29 878.42 1386.46 878.596ZM1383.41 879.938C1383.62 880.15 1384.89 879.232 1384.89 878.879C1384.89 878.702 1384.54 878.843 1384.1 879.161C1383.67 879.514 1383.36 879.867 1383.41 879.938ZM1380.79 880.962C1380.66 881.138 1380.83 881.279 1381.18 881.279C1381.53 881.279 1381.7 881.138 1381.57 880.962C1381.44 880.82 1381.27 880.679 1381.18 880.679C1381.09 880.679 1380.92 880.82 1380.79 880.962ZM350.171 882.268C350.171 882.55 350.346 882.691 350.564 882.586C350.782 882.48 350.826 882.233 350.695 882.056C350.302 881.597 350.171 881.668 350.171 882.268ZM1372.5 885.269C1372.84 885.551 1373.15 885.481 1373.54 885.092C1374.02 884.633 1373.98 884.598 1373.32 884.774C1372.71 884.986 1372.63 884.916 1372.89 884.527C1373.15 884.139 1373.11 884.104 1372.63 884.457C1372.23 884.774 1372.19 885.022 1372.5 885.269ZM1368.04 884.986L1367.21 885.798L1368.17 885.163C1368.7 884.774 1369.35 884.598 1369.66 884.774C1370.01 884.916 1370.09 884.88 1369.88 884.633C1369.44 884.033 1368.96 884.104 1368.04 884.986ZM360.035 885.163C359.511 885.728 359.511 885.763 360.122 885.375C360.515 885.128 360.995 885.057 361.17 885.198C361.388 885.339 361.388 885.233 361.214 884.986C360.821 884.421 360.733 884.457 360.035 885.163ZM1367.96 886.893C1367.96 887.493 1368.09 887.669 1368.31 887.352C1368.52 887.14 1368.57 886.716 1368.44 886.434C1368.09 885.763 1367.96 885.869 1367.96 886.893ZM360.733 886.646C360.603 886.822 360.646 887.069 360.864 887.175C361.083 887.281 361.257 887.14 361.257 886.857C361.257 886.257 361.126 886.187 360.733 886.646ZM368.153 888.799C368.022 889.011 368.197 889.046 368.546 888.94C369.332 888.693 369.463 888.446 368.852 888.446C368.59 888.446 368.284 888.587 368.153 888.799ZM1358.48 889.117C1358.35 889.293 1358.4 889.541 1358.62 889.647C1358.83 889.752 1359.01 889.611 1359.01 889.329C1359.01 888.729 1358.88 888.658 1358.48 889.117ZM1358.44 890.882C1358.62 891.059 1358.44 891.306 1358.18 891.376C1357.87 891.482 1358.18 891.553 1358.83 891.518C1359.93 891.482 1359.97 891.412 1359.31 891.023C1358.4 890.494 1358.14 890.459 1358.44 890.882ZM1356.52 891.553C1356.52 891.835 1356.56 892.012 1356.65 891.941C1356.7 891.871 1357.04 891.518 1357.35 891.165C1357.87 890.635 1357.87 890.564 1357.22 890.776C1356.83 890.882 1356.52 891.235 1356.52 891.553ZM1354.77 892.153C1354.77 892.224 1355.04 892.33 1355.34 892.436C1355.69 892.541 1355.95 892.4 1355.95 892.153C1355.95 891.906 1355.69 891.765 1355.34 891.871C1355.04 891.977 1354.77 892.083 1354.77 892.153ZM373.391 892.33C373.26 892.506 373.391 892.753 373.653 892.895C374.002 893.071 374.046 893 373.827 892.683C373.565 892.33 373.653 892.259 374.176 892.436C374.569 892.541 374.962 892.541 375.093 892.4C375.224 892.259 374.918 892.118 374.482 892.083C374.002 892.047 373.522 892.153 373.391 892.33ZM1351.5 893.742C1351.37 893.954 1351.54 893.989 1351.89 893.883C1352.68 893.636 1352.81 893.389 1352.2 893.389C1351.94 893.389 1351.63 893.53 1351.5 893.742ZM377.101 894.271C376.621 894.73 376.664 894.766 377.275 894.589C377.668 894.483 377.974 894.236 377.974 894.06C377.974 893.601 377.712 893.671 377.101 894.271ZM396.872 897.802C396.872 898.084 397.047 898.226 397.265 898.12C397.484 898.014 397.527 897.767 397.396 897.59C397.003 897.131 396.872 897.202 396.872 897.802ZM390.195 898.685C390.195 898.861 390.413 899.038 390.675 899.038C390.893 899.038 390.98 898.861 390.849 898.685C390.718 898.473 390.5 898.331 390.369 898.331C390.282 898.331 390.195 898.473 390.195 898.685ZM391.504 899.038C391.504 899.214 391.722 899.391 391.984 899.391C392.202 899.391 392.29 899.214 392.159 899.038C392.028 898.826 391.81 898.685 391.679 898.685C391.591 898.685 391.504 898.826 391.504 899.038ZM997.749 962.657C997.313 963.398 997.313 963.433 997.88 962.833C998.578 962.127 999.015 962.409 998.84 963.398C998.753 963.716 998.884 963.928 999.102 963.786C999.32 963.68 999.364 963.433 999.233 963.221C999.015 962.939 999.189 962.904 999.757 963.045C1000.37 963.221 1000.28 963.116 999.495 962.586C998.142 961.739 998.317 961.739 997.749 962.657ZM729.063 962.763C729.107 963.045 729.325 963.398 729.544 963.539C729.718 963.716 729.762 963.61 729.544 963.327C729.282 962.939 729.369 962.868 730.024 963.045C730.809 963.292 730.809 963.292 730.024 962.763C728.976 962.127 728.932 962.127 729.063 962.763ZM1001.94 963.575C1001.81 963.751 1001.98 963.892 1002.33 963.892C1002.68 963.892 1002.86 963.751 1002.72 963.575C1002.59 963.433 1002.42 963.292 1002.33 963.292C1002.24 963.292 1002.07 963.433 1001.94 963.575ZM766.119 963.822C766.119 964.104 766.294 964.245 766.512 964.139C766.73 964.034 766.774 963.786 766.643 963.61C766.25 963.151 766.119 963.221 766.119 963.822ZM726.445 963.716C726.314 963.857 726.488 963.892 726.881 963.857C727.23 963.822 727.667 963.68 727.841 963.575C727.972 963.433 727.798 963.398 727.405 963.433C727.056 963.469 726.619 963.61 726.445 963.716ZM767.036 964.422C766.861 964.669 766.905 964.704 767.21 964.563C767.516 964.422 767.734 964.492 767.734 964.74C767.734 964.987 767.865 965.093 767.996 964.951C768.258 964.775 767.865 963.998 767.516 963.998C767.428 963.998 767.21 964.175 767.036 964.422ZM958.206 965.94C958.249 966.222 958.468 966.575 958.686 966.717C958.86 966.858 958.904 966.787 958.73 966.54C958.555 966.293 958.642 966.116 958.991 966.116C959.384 966.116 959.384 966.011 958.904 965.763C958.075 965.34 958.075 965.304 958.206 965.94Z" fill="white"/>
</svg>
