<svg width="176" height="209" viewBox="0 0 176 209" fill="none" xmlns="http://www.w3.org/2000/svg">
<path d="M0 52.5098L59.04 86.5897L57.6 104.83L17.76 82.9897L18 99.0698L54.96 120.67L52.8 139.15L17.76 118.99L17.52 166.27C17.52 166.27 0.24 159.55 0 148.03V52.5098Z" fill="white"/>
<path d="M21.88 171.6V132.48L55.48 152.04L64.36 84.24L1 47.04L76.6 2.88C76.6 2.88 85 -3.6 96.76 2.88L171.64 46.8L109 84L86.32 80.16V188.64L149.56 151.2C149.56 151.2 157.57 148.68 157.75 134.73L157.63 92.31L155.23 88.59C155.23 88.59 152.95 87.39 149.71 88.83L132.55 98.67V152.55L118.39 161.07L109.51 91.59L175.51 53.43V148.95C175.51 148.95 173.35 160.95 162.55 164.31L86.47 208.23L21.88 171.6Z" fill="white"/>
</svg>
