<svg width="558" height="209" viewBox="0 0 558 209" fill="none" xmlns="http://www.w3.org/2000/svg">
<path d="M0 52.5098L59.04 86.5897L57.6 104.83L17.76 82.9897L18 99.0698L54.96 120.67L52.8 139.15L17.76 118.99L17.52 166.27C17.52 166.27 0.24 159.55 0 148.03V52.5098Z" fill="white"/>
<path d="M21.88 171.6V132.48L55.48 152.04L64.36 84.24L1 47.04L76.6 2.88C76.6 2.88 85 -3.6 96.76 2.88L171.64 46.8L109 84L86.32 80.16V188.64L149.56 151.2C149.56 151.2 157.57 148.68 157.75 134.73L157.63 92.31L155.23 88.59C155.23 88.59 152.95 87.39 149.71 88.83L132.55 98.67V152.55L118.39 161.07L109.51 91.59L175.51 53.43V148.95C175.51 148.95 173.35 160.95 162.55 164.31L86.47 208.23L21.88 171.6Z" fill="white"/>
<path d="M247.926 83.8632C247.926 84.1832 247.798 84.4712 247.542 84.7272C247.35 84.9192 247.094 85.0152 246.774 85.0152H214.134C213.814 85.0152 213.654 85.1752 213.654 85.4952V103.447C213.654 103.767 213.814 103.927 214.134 103.927H236.118C236.438 103.927 236.694 104.055 236.886 104.311C237.142 104.503 237.27 104.759 237.27 105.079V112.375C237.27 112.695 237.142 112.983 236.886 113.239C236.694 113.431 236.438 113.527 236.118 113.527H214.134C213.814 113.527 213.654 113.687 213.654 114.007V141.463C213.654 141.783 213.526 142.071 213.27 142.327C213.078 142.519 212.822 142.615 212.502 142.615H203.67C203.35 142.615 203.062 142.519 202.806 142.327C202.614 142.071 202.518 141.783 202.518 141.463V76.5672C202.518 76.2472 202.614 75.9912 202.806 75.7992C203.062 75.5432 203.35 75.4152 203.67 75.4152H246.774C247.094 75.4152 247.35 75.5432 247.542 75.7992C247.798 75.9912 247.926 76.2472 247.926 76.5672V83.8632ZM271.419 143.383C266.363 143.383 262.011 142.103 258.363 139.543C254.779 136.983 252.251 133.431 250.779 128.887C249.691 125.431 249.147 121.783 249.147 117.943C249.147 113.847 249.659 110.199 250.683 106.999C252.155 102.519 254.715 99.0312 258.363 96.5352C262.011 94.0392 266.395 92.7912 271.515 92.7912C276.379 92.7912 280.571 94.0392 284.091 96.5352C287.675 99.0312 290.203 102.487 291.675 106.903C292.827 109.975 293.403 113.623 293.403 117.847C293.403 121.879 292.859 125.527 291.771 128.791C290.299 133.335 287.771 136.919 284.187 139.543C280.603 142.103 276.347 143.383 271.419 143.383ZM271.419 133.783C273.787 133.783 275.803 133.111 277.467 131.767C279.195 130.423 280.443 128.535 281.211 126.103C281.851 123.991 282.171 121.303 282.171 118.039C282.171 114.583 281.851 111.895 281.211 109.975C280.507 107.543 279.291 105.687 277.563 104.407C275.835 103.063 273.723 102.391 271.227 102.391C268.859 102.391 266.811 103.063 265.083 104.407C263.355 105.687 262.107 107.543 261.339 109.975C260.699 112.215 260.379 114.903 260.379 118.039C260.379 121.175 260.699 123.863 261.339 126.103C262.043 128.535 263.259 130.423 264.987 131.767C266.779 133.111 268.923 133.783 271.419 133.783ZM326.779 92.9832C328.827 92.9832 330.619 93.3992 332.155 94.2312C332.667 94.4872 332.859 94.9672 332.731 95.6712L331.099 104.311C331.035 105.079 330.587 105.303 329.755 104.983C328.795 104.663 327.675 104.503 326.395 104.503C325.563 104.503 324.923 104.535 324.475 104.599C321.787 104.727 319.547 105.687 317.755 107.479C315.963 109.207 315.067 111.479 315.067 114.295V141.463C315.067 141.783 314.939 142.071 314.683 142.327C314.491 142.519 314.235 142.615 313.915 142.615H305.083C304.763 142.615 304.475 142.519 304.219 142.327C304.027 142.071 303.931 141.783 303.931 141.463V94.7112C303.931 94.3912 304.027 94.1352 304.219 93.9432C304.475 93.6872 304.763 93.5592 305.083 93.5592H313.915C314.235 93.5592 314.491 93.6872 314.683 93.9432C314.939 94.1352 315.067 94.3912 315.067 94.7112V99.0312C315.067 99.2872 315.099 99.4472 315.163 99.5112C315.291 99.5112 315.419 99.4152 315.547 99.2232C318.235 95.0632 321.979 92.9832 326.779 92.9832ZM366.884 101.431C366.884 101.751 366.756 102.039 366.5 102.295C366.308 102.487 366.052 102.583 365.732 102.583H355.94C355.62 102.583 355.46 102.743 355.46 103.063V126.199C355.46 128.631 355.972 130.391 356.996 131.479C358.084 132.567 359.78 133.111 362.084 133.111H364.964C365.284 133.111 365.54 133.239 365.732 133.495C365.988 133.687 366.116 133.943 366.116 134.263V141.463C366.116 142.167 365.732 142.583 364.964 142.711L359.972 142.807C354.916 142.807 351.14 141.943 348.644 140.215C346.148 138.487 344.868 135.223 344.804 130.423V103.063C344.804 102.743 344.644 102.583 344.324 102.583H338.852C338.532 102.583 338.244 102.487 337.988 102.295C337.796 102.039 337.7 101.751 337.7 101.431V94.7112C337.7 94.3912 337.796 94.1352 337.988 93.9432C338.244 93.6872 338.532 93.5592 338.852 93.5592H344.324C344.644 93.5592 344.804 93.3992 344.804 93.0792V81.8472C344.804 81.5272 344.9 81.2712 345.092 81.0792C345.348 80.8232 345.636 80.6952 345.956 80.6952H354.308C354.628 80.6952 354.884 80.8232 355.076 81.0792C355.332 81.2712 355.46 81.5272 355.46 81.8472V93.0792C355.46 93.3992 355.62 93.5592 355.94 93.5592H365.732C366.052 93.5592 366.308 93.6872 366.5 93.9432C366.756 94.1352 366.884 94.3912 366.884 94.7112V101.431Z" fill="white"/>
<path d="M378.983 142.615C378.663 142.615 378.375 142.519 378.119 142.327C377.927 142.071 377.831 141.783 377.831 141.463V76.5672C377.831 76.2472 377.927 75.9912 378.119 75.7992C378.375 75.5432 378.663 75.4152 378.983 75.4152H402.407C406.951 75.4152 410.951 76.2152 414.407 77.8152C417.863 79.4152 420.519 81.7192 422.375 84.7272C424.295 87.6712 425.255 91.1272 425.255 95.0952V122.935C425.255 126.903 424.295 130.391 422.375 133.399C420.519 136.343 417.863 138.615 414.407 140.215C410.951 141.815 406.951 142.615 402.407 142.615H378.983ZM388.967 132.535C388.967 132.855 389.127 133.015 389.447 133.015H402.887C406.279 133.015 408.967 131.959 410.951 129.847C412.999 127.671 414.055 124.791 414.119 121.207V96.9192C414.119 93.2712 413.095 90.3912 411.047 88.2792C408.999 86.1032 406.247 85.0152 402.791 85.0152H389.447C389.127 85.0152 388.967 85.1752 388.967 85.4952V132.535ZM442.454 86.8392C440.47 86.8392 438.838 86.1992 437.558 84.9192C436.278 83.6392 435.638 82.0072 435.638 80.0232C435.638 78.0392 436.278 76.4072 437.558 75.1272C438.838 73.8472 440.47 73.2072 442.454 73.2072C444.438 73.2072 446.07 73.8472 447.35 75.1272C448.63 76.4072 449.27 78.0392 449.27 80.0232C449.27 82.0072 448.63 83.6392 447.35 84.9192C446.07 86.1992 444.438 86.8392 442.454 86.8392ZM437.846 142.615C437.526 142.615 437.238 142.519 436.982 142.327C436.79 142.071 436.694 141.783 436.694 141.463V94.6152C436.694 94.2952 436.79 94.0392 436.982 93.8472C437.238 93.5912 437.526 93.4632 437.846 93.4632H446.678C446.998 93.4632 447.254 93.5912 447.446 93.8472C447.702 94.0392 447.83 94.2952 447.83 94.6152V141.463C447.83 141.783 447.702 142.071 447.446 142.327C447.254 142.519 446.998 142.615 446.678 142.615H437.846ZM481.035 143.383C476.107 143.383 471.851 142.135 468.267 139.639C464.683 137.079 462.187 133.655 460.779 129.367C459.755 126.487 459.243 122.647 459.243 117.847C459.243 113.239 459.755 109.463 460.779 106.519C462.123 102.295 464.587 98.9672 468.171 96.5352C471.819 94.0392 476.107 92.7912 481.035 92.7912C486.027 92.7912 490.379 94.0392 494.091 96.5352C497.803 99.0312 500.267 102.167 501.483 105.943C501.803 106.967 502.027 107.991 502.155 109.015V109.207C502.155 109.847 501.803 110.231 501.099 110.359L492.459 111.607H492.267C491.691 111.607 491.307 111.287 491.115 110.647C491.115 110.327 491.083 110.071 491.019 109.879C490.891 109.367 490.763 108.919 490.635 108.535C490.059 106.743 488.907 105.271 487.179 104.119C485.451 102.967 483.403 102.391 481.035 102.391C478.603 102.391 476.523 103.031 474.795 104.311C473.131 105.527 472.011 107.223 471.435 109.399C470.795 111.447 470.475 114.295 470.475 117.943C470.475 121.463 470.763 124.311 471.339 126.487C471.979 128.727 473.131 130.519 474.795 131.863C476.459 133.143 478.539 133.783 481.035 133.783C483.467 133.783 485.547 133.175 487.275 131.959C489.067 130.679 490.219 128.983 490.731 126.871C490.795 126.743 490.827 126.583 490.827 126.391C490.891 126.327 490.923 126.231 490.923 126.103C491.115 125.335 491.563 125.015 492.267 125.143L500.907 126.487C501.227 126.551 501.483 126.711 501.675 126.967C501.931 127.159 502.027 127.447 501.963 127.831C501.771 128.855 501.611 129.591 501.483 130.039C500.267 134.135 497.803 137.399 494.091 139.831C490.379 142.199 486.027 143.383 481.035 143.383ZM552.494 112.567C552.75 114.167 552.878 115.959 552.878 117.943L552.782 120.919C552.782 121.687 552.398 122.071 551.63 122.071H521.582C521.262 122.071 521.102 122.231 521.102 122.551C521.294 124.663 521.582 126.103 521.966 126.871C523.502 131.479 527.246 133.815 533.198 133.879C537.55 133.879 541.006 132.087 543.566 128.503C543.822 128.119 544.142 127.927 544.526 127.927C544.782 127.927 545.006 128.023 545.198 128.215L551.15 133.111C551.726 133.559 551.822 134.071 551.438 134.647C549.454 137.463 546.798 139.639 543.47 141.175C540.206 142.711 536.558 143.479 532.526 143.479C527.534 143.479 523.278 142.359 519.758 140.119C516.302 137.879 513.774 134.743 512.174 130.711C510.702 127.255 509.966 122.455 509.966 116.311C509.966 112.599 510.35 109.591 511.118 107.287C512.398 102.807 514.798 99.2872 518.318 96.7272C521.902 94.1032 526.19 92.7912 531.182 92.7912C543.79 92.7912 550.894 99.3832 552.494 112.567ZM531.182 102.391C528.814 102.391 526.83 102.999 525.23 104.215C523.694 105.367 522.606 106.999 521.966 109.111C521.582 110.199 521.326 111.607 521.198 113.335C521.07 113.655 521.198 113.815 521.582 113.815H541.07C541.39 113.815 541.55 113.655 541.55 113.335C541.422 111.735 541.23 110.519 540.974 109.687C540.398 107.383 539.246 105.591 537.518 104.311C535.854 103.031 533.742 102.391 531.182 102.391Z" fill="white"/>
</svg>
